solid oledscreenmount
facet normal 0.0 0.0 -1.0
  outer loop
    vertex -123.28318216488657 90.64238284236592 0.0
    vertex -130.36964239189626 95.6153032963853 0.0
    vertex -123.28318216488657 95.6153032963853 0.0
  endloop
endfacet
facet normal 0.0 -1.0 0.0
  outer loop
    vertex -123.28318216488657 90.64238284236592 3.9999999999999996
    vertex -130.36964239189626 90.64238284236592 0.0
    vertex -123.28318216488657 90.64238284236592 0.0
  endloop
endfacet
facet normal 0.0 -1.0 0.0
  outer loop
    vertex -130.36964239189626 90.64238284236592 0.0
    vertex -123.28318216488657 90.64238284236592 3.9999999999999996
    vertex -130.36964239189626 90.64238284236592 3.9999999999999996
  endloop
endfacet
facet normal -0.0 1.0 -0.0
  outer loop
    vertex -121.76964239189624 90.24238284236593 3.9999999999999996
    vertex -113.88318216488656 90.24238284236593 0.0
    vertex -121.76964239189624 90.24238284236593 0.0
  endloop
endfacet
facet normal -0.0 1.0 -0.0
  outer loop
    vertex -113.88318216488656 90.24238284236593 0.0
    vertex -121.76964239189624 90.24238284236593 3.9999999999999996
    vertex -113.88318216488656 90.24238284236593 3.9999999999999996
  endloop
endfacet
facet normal -1.0 0.0 -0.0
  outer loop
    vertex -113.88318216488656 96.0153032963853 3.9999999999999996
    vertex -113.88318216488656 90.24238284236593 0.0
    vertex -113.88318216488656 90.24238284236593 3.9999999999999996
  endloop
endfacet
facet normal -1.0 0.0 -0.0
  outer loop
    vertex -113.88318216488656 90.24238284236593 0.0
    vertex -113.88318216488656 96.0153032963853 3.9999999999999996
    vertex -113.88318216488656 96.0153032963853 0.0
  endloop
endfacet
facet normal -1.0 0.0 0.0
  outer loop
    vertex -130.36964239189626 95.6153032963853 3.9999999999999996
    vertex -130.36964239189626 90.64238284236592 0.0
    vertex -130.36964239189626 90.64238284236592 3.9999999999999996
  endloop
endfacet
facet normal -1.0 0.0 0.0
  outer loop
    vertex -130.36964239189626 90.64238284236592 0.0
    vertex -130.36964239189626 95.6153032963853 3.9999999999999996
    vertex -130.36964239189626 95.6153032963853 0.0
  endloop
endfacet
facet normal -1.0 0.0 0.0
  outer loop
    vertex -121.76964239189624 90.24238284236593 3.9999999999999996
    vertex -121.76964239189624 88.1288430693756 0.0
    vertex -121.76964239189624 88.1288430693756 3.9999999999999996
  endloop
endfacet
facet normal -1.0 0.0 0.0
  outer loop
    vertex -121.76964239189624 88.1288430693756 0.0
    vertex -121.76964239189624 90.24238284236593 3.9999999999999996
    vertex -121.76964239189624 90.24238284236593 0.0
  endloop
endfacet
facet normal -0.0 -0.0 1.0
  outer loop
    vertex -123.28318216488657 90.64238284236592 3.9999999999999996
    vertex -130.36964239189626 95.6153032963853 3.9999999999999996
    vertex -130.36964239189626 90.64238284236592 3.9999999999999996
  endloop
endfacet
facet normal -0.0 -0.0 1.0
  outer loop
    vertex -130.36964239189626 95.6153032963853 3.9999999999999996
    vertex -123.28318216488657 90.64238284236592 3.9999999999999996
    vertex -123.28318216488657 95.6153032963853 3.9999999999999996
  endloop
endfacet
facet normal 0.0 0.0 -1.0
  outer loop
    vertex -123.28318216488657 90.64238284236592 0.0
    vertex -130.36964239189626 90.64238284236592 0.0
    vertex -130.36964239189626 95.6153032963853 0.0
  endloop
endfacet
facet normal -0.0 1.0 -0.0
  outer loop
    vertex -130.36964239189626 95.6153032963853 3.9999999999999996
    vertex -123.28318216488657 95.6153032963853 0.0
    vertex -130.36964239189626 95.6153032963853 0.0
  endloop
endfacet
facet normal -0.0 1.0 -0.0
  outer loop
    vertex -123.28318216488657 95.6153032963853 0.0
    vertex -130.36964239189626 95.6153032963853 3.9999999999999996
    vertex -123.28318216488657 95.6153032963853 3.9999999999999996
  endloop
endfacet
facet normal 0.0 -1.0 0.0
  outer loop
    vertex -113.88318216488656 96.0153032963853 3.9999999999999996
    vertex -121.76964239189624 96.0153032963853 0.0
    vertex -113.88318216488656 96.0153032963853 0.0
  endloop
endfacet
facet normal 0.0 -1.0 0.0
  outer loop
    vertex -121.76964239189624 96.0153032963853 0.0
    vertex -113.88318216488656 96.0153032963853 3.9999999999999996
    vertex -121.76964239189624 96.0153032963853 3.9999999999999996
  endloop
endfacet
facet normal 1.0 -0.0 -0.0
  outer loop
    vertex -123.28318216488657 95.6153032963853 0.0
    vertex -123.28318216488657 90.64238284236592 3.9999999999999996
    vertex -123.28318216488657 90.64238284236592 0.0
  endloop
endfacet
facet normal 1.0 -0.0 -0.0
  outer loop
    vertex -123.28318216488657 90.64238284236592 3.9999999999999996
    vertex -123.28318216488657 95.6153032963853 0.0
    vertex -123.28318216488657 95.6153032963853 3.9999999999999996
  endloop
endfacet
facet normal -0.0 -0.0 1.0
  outer loop
    vertex -111.76964239189624 88.1288430693756 3.9999999999999996
    vertex -121.76964239189624 90.24238284236593 3.9999999999999996
    vertex -121.76964239189624 88.1288430693756 3.9999999999999996
  endloop
endfacet
facet normal -0.0 -0.0 1.0
  outer loop
    vertex -121.76964239189624 90.24238284236593 3.9999999999999996
    vertex -111.76964239189624 88.1288430693756 3.9999999999999996
    vertex -113.88318216488656 90.24238284236593 3.9999999999999996
  endloop
endfacet
facet normal -0.0 -0.0 1.0
  outer loop
    vertex -113.88318216488656 90.24238284236593 3.9999999999999996
    vertex -111.76964239189624 88.1288430693756 3.9999999999999996
    vertex -113.88318216488656 96.0153032963853 3.9999999999999996
  endloop
endfacet
facet normal -0.0 -0.0 1.0
  outer loop
    vertex -113.88318216488656 96.0153032963853 3.9999999999999996
    vertex -121.76964239189624 98.12884306937562 3.9999999999999996
    vertex -121.76964239189624 96.0153032963853 3.9999999999999996
  endloop
endfacet
facet normal -0.0 -0.0 1.0
  outer loop
    vertex -121.76964239189624 98.12884306937562 3.9999999999999996
    vertex -113.88318216488656 96.0153032963853 3.9999999999999996
    vertex -111.76964239189624 98.12884306937562 3.9999999999999996
  endloop
endfacet
facet normal -0.0 -0.0 1.0
  outer loop
    vertex -111.76964239189624 98.12884306937562 3.9999999999999996
    vertex -113.88318216488656 96.0153032963853 3.9999999999999996
    vertex -111.76964239189624 88.1288430693756 3.9999999999999996
  endloop
endfacet
facet normal 0.0 0.0 -1.0
  outer loop
    vertex -111.76964239189624 98.12884306937562 0.0
    vertex -121.76964239189624 96.0153032963853 0.0
    vertex -121.76964239189624 98.12884306937562 0.0
  endloop
endfacet
facet normal 0.0 0.0 -1.0
  outer loop
    vertex -121.76964239189624 96.0153032963853 0.0
    vertex -111.76964239189624 98.12884306937562 0.0
    vertex -113.88318216488656 96.0153032963853 0.0
  endloop
endfacet
facet normal 0.0 0.0 -1.0
  outer loop
    vertex -113.88318216488656 96.0153032963853 0.0
    vertex -111.76964239189624 98.12884306937562 0.0
    vertex -113.88318216488656 90.24238284236593 0.0
  endloop
endfacet
facet normal 0.0 0.0 -1.0
  outer loop
    vertex -113.88318216488656 90.24238284236593 0.0
    vertex -121.76964239189624 88.1288430693756 0.0
    vertex -121.76964239189624 90.24238284236593 0.0
  endloop
endfacet
facet normal 0.0 0.0 -1.0
  outer loop
    vertex -121.76964239189624 88.1288430693756 0.0
    vertex -113.88318216488656 90.24238284236593 0.0
    vertex -111.76964239189624 88.1288430693756 0.0
  endloop
endfacet
facet normal 0.0 0.0 -1.0
  outer loop
    vertex -111.76964239189624 88.1288430693756 0.0
    vertex -113.88318216488656 90.24238284236593 0.0
    vertex -111.76964239189624 98.12884306937562 0.0
  endloop
endfacet
facet normal 1.0 0.0 0.0
  outer loop
    vertex -111.76964239189624 98.12884306937562 0.0
    vertex -111.76964239189624 88.1288430693756 3.9999999999999996
    vertex -111.76964239189624 88.1288430693756 0.0
  endloop
endfacet
facet normal 1.0 0.0 0.0
  outer loop
    vertex -111.76964239189624 88.1288430693756 3.9999999999999996
    vertex -111.76964239189624 98.12884306937562 0.0
    vertex -111.76964239189624 98.12884306937562 3.9999999999999996
  endloop
endfacet
facet normal -0.0 -1.0 -0.0
  outer loop
    vertex -111.76964239189624 88.1288430693756 3.9999999999999996
    vertex -121.76964239189624 88.1288430693756 0.0
    vertex -111.76964239189624 88.1288430693756 0.0
  endloop
endfacet
facet normal -0.0 -1.0 -0.0
  outer loop
    vertex -121.76964239189624 88.1288430693756 0.0
    vertex -111.76964239189624 88.1288430693756 3.9999999999999996
    vertex -121.76964239189624 88.1288430693756 3.9999999999999996
  endloop
endfacet
facet normal -1.0 0.0 0.0
  outer loop
    vertex -121.76964239189624 98.12884306937562 3.9999999999999996
    vertex -121.76964239189624 96.0153032963853 0.0
    vertex -121.76964239189624 96.0153032963853 3.9999999999999996
  endloop
endfacet
facet normal -1.0 0.0 0.0
  outer loop
    vertex -121.76964239189624 96.0153032963853 0.0
    vertex -121.76964239189624 98.12884306937562 3.9999999999999996
    vertex -121.76964239189624 98.12884306937562 0.0
  endloop
endfacet
facet normal -0.0 1.0 0.0
  outer loop
    vertex -121.76964239189624 98.12884306937562 3.9999999999999996
    vertex -111.76964239189624 98.12884306937562 0.0
    vertex -121.76964239189624 98.12884306937562 0.0
  endloop
endfacet
facet normal -0.0 1.0 0.0
  outer loop
    vertex -111.76964239189624 98.12884306937562 0.0
    vertex -121.76964239189624 98.12884306937562 3.9999999999999996
    vertex -111.76964239189624 98.12884306937562 3.9999999999999996
  endloop
endfacet
endsolid oledscreenmount
