solid OpenSCAD_Model
  facet normal -1 0 0
    outer loop
      vertex -5 -5 -2
      vertex -5 5 2
      vertex -5 5 -2
    endloop
  endfacet
  facet normal -1 -0 0
    outer loop
      vertex -5 5 2
      vertex -5 -5 -2
      vertex -5 -5 2
    endloop
  endfacet
  facet normal 0 0 1
    outer loop
      vertex 5 5 2
      vertex 3.06 3.06 2
      vertex 5 -5 2
    endloop
  endfacet
  facet normal 0 0 1
    outer loop
      vertex 5 5 2
      vertex -3.06 3.06 2
      vertex 3.06 3.06 2
    endloop
  endfacet
  facet normal 0 0 1
    outer loop
      vertex -3.06 3.06 2
      vertex -5 5 2
      vertex -3.06 -3.06 2
    endloop
  endfacet
  facet normal -0 0 1
    outer loop
      vertex -5 5 2
      vertex -3.06 3.06 2
      vertex 5 5 2
    endloop
  endfacet
  facet normal -0 0 1
    outer loop
      vertex 3.06 -3.06 2
      vertex 5 -5 2
      vertex 3.06 3.06 2
    endloop
  endfacet
  facet normal -0 0 1
    outer loop
      vertex -3.06 -3.06 2
      vertex 5 -5 2
      vertex 3.06 -3.06 2
    endloop
  endfacet
  facet normal 0 0 1
    outer loop
      vertex -3.06 -3.06 2
      vertex -5 -5 2
      vertex 5 -5 2
    endloop
  endfacet
  facet normal 0 0 1
    outer loop
      vertex -5 -5 2
      vertex -3.06 -3.06 2
      vertex -5 5 2
    endloop
  endfacet
  facet normal 1 -0 0
    outer loop
      vertex 5 -5 2
      vertex 5 5 -2
      vertex 5 5 2
    endloop
  endfacet
  facet normal 1 0 0
    outer loop
      vertex 5 5 -2
      vertex 5 -5 2
      vertex 5 -5 -2
    endloop
  endfacet
  facet normal 0 1 -0
    outer loop
      vertex 5 5 -2
      vertex -5 5 2
      vertex 5 5 2
    endloop
  endfacet
  facet normal 0 1 0
    outer loop
      vertex -5 5 2
      vertex 5 5 -2
      vertex -5 5 -2
    endloop
  endfacet
  facet normal 0 0 -1
    outer loop
      vertex 5 -5 -2
      vertex 3.06 -3.06 -2
      vertex 5 5 -2
    endloop
  endfacet
  facet normal 0 0 -1
    outer loop
      vertex 5 -5 -2
      vertex -3.06 -3.06 -2
      vertex 3.06 -3.06 -2
    endloop
  endfacet
  facet normal -0 0 -1
    outer loop
      vertex -3.06 -3.06 -2
      vertex -5 -5 -2
      vertex -3.06 3.06 -2
    endloop
  endfacet
  facet normal 0 0 -1
    outer loop
      vertex -5 -5 -2
      vertex -3.06 -3.06 -2
      vertex 5 -5 -2
    endloop
  endfacet
  facet normal 0 0 -1
    outer loop
      vertex 3.06 3.06 -2
      vertex 5 5 -2
      vertex 3.06 -3.06 -2
    endloop
  endfacet
  facet normal 0 0 -1
    outer loop
      vertex -3.06 3.06 -2
      vertex 5 5 -2
      vertex 3.06 3.06 -2
    endloop
  endfacet
  facet normal 0 0 -1
    outer loop
      vertex -3.06 3.06 -2
      vertex -5 5 -2
      vertex 5 5 -2
    endloop
  endfacet
  facet normal 0 0 -1
    outer loop
      vertex -5 5 -2
      vertex -3.06 3.06 -2
      vertex -5 -5 -2
    endloop
  endfacet
  facet normal 0 -1 0
    outer loop
      vertex -5 -5 -2
      vertex 5 -5 2
      vertex -5 -5 2
    endloop
  endfacet
  facet normal 0 -1 -0
    outer loop
      vertex 5 -5 2
      vertex -5 -5 -2
      vertex 5 -5 -2
    endloop
  endfacet
  facet normal 1 -0 0
    outer loop
      vertex -3.06 -3.06 2
      vertex -3.06 3.06 -2
      vertex -3.06 3.06 2
    endloop
  endfacet
  facet normal 1 0 0
    outer loop
      vertex -3.06 3.06 -2
      vertex -3.06 -3.06 2
      vertex -3.06 -3.06 -2
    endloop
  endfacet
  facet normal -1 0 0
    outer loop
      vertex 3.06 -3.06 -2
      vertex 3.06 3.06 2
      vertex 3.06 3.06 -2
    endloop
  endfacet
  facet normal -1 -0 0
    outer loop
      vertex 3.06 3.06 2
      vertex 3.06 -3.06 -2
      vertex 3.06 -3.06 2
    endloop
  endfacet
  facet normal 0 -1 0
    outer loop
      vertex -3.06 3.06 -2
      vertex 3.06 3.06 2
      vertex -3.06 3.06 2
    endloop
  endfacet
  facet normal 0 -1 -0
    outer loop
      vertex 3.06 3.06 2
      vertex -3.06 3.06 -2
      vertex 3.06 3.06 -2
    endloop
  endfacet
  facet normal 0 1 -0
    outer loop
      vertex 3.06 -3.06 -2
      vertex -3.06 -3.06 2
      vertex 3.06 -3.06 2
    endloop
  endfacet
  facet normal 0 1 0
    outer loop
      vertex -3.06 -3.06 2
      vertex 3.06 -3.06 -2
      vertex -3.06 -3.06 -2
    endloop
  endfacet
endsolid OpenSCAD_Model
