solid OpenSCAD_Model
  facet normal 0.819232 0 -0.573462
    outer loop
      vertex 17 21 5.995
      vertex 10 -18 -4.005
      vertex 10 18 -4.005
    endloop
  endfacet
  facet normal 0.819232 0 -0.573462
    outer loop
      vertex 10 -18 -4.005
      vertex 17 21 5.995
      vertex 17 -21 5.995
    endloop
  endfacet
  facet normal 0 -1 0
    outer loop
      vertex -17 -21 5.995
      vertex 17 -21 6.005
      vertex -17 -21 6.005
    endloop
  endfacet
  facet normal 0 -1 -0
    outer loop
      vertex 17 -21 6.005
      vertex -17 -21 5.995
      vertex 17 -21 5.995
    endloop
  endfacet
  facet normal 0 0 1
    outer loop
      vertex 17 21 6.005
      vertex 10 18 6.005
      vertex 17 -21 6.005
    endloop
  endfacet
  facet normal 0 0 1
    outer loop
      vertex 17 21 6.005
      vertex -10 18 6.005
      vertex 10 18 6.005
    endloop
  endfacet
  facet normal 0 0 1
    outer loop
      vertex -10 18 6.005
      vertex -17 21 6.005
      vertex -10 -18 6.005
    endloop
  endfacet
  facet normal -0 0 1
    outer loop
      vertex -17 21 6.005
      vertex -10 18 6.005
      vertex 17 21 6.005
    endloop
  endfacet
  facet normal -0 0 1
    outer loop
      vertex 10 -18 6.005
      vertex 17 -21 6.005
      vertex 10 18 6.005
    endloop
  endfacet
  facet normal -0 0 1
    outer loop
      vertex -10 -18 6.005
      vertex 17 -21 6.005
      vertex 10 -18 6.005
    endloop
  endfacet
  facet normal 0 0 1
    outer loop
      vertex -10 -18 6.005
      vertex -17 -21 6.005
      vertex 17 -21 6.005
    endloop
  endfacet
  facet normal 0 0 1
    outer loop
      vertex -17 -21 6.005
      vertex -10 -18 6.005
      vertex -17 21 6.005
    endloop
  endfacet
  facet normal 1 -0 0
    outer loop
      vertex 17 -21 6.005
      vertex 17 21 5.995
      vertex 17 21 6.005
    endloop
  endfacet
  facet normal 1 0 0
    outer loop
      vertex 17 21 5.995
      vertex 17 -21 6.005
      vertex 17 -21 5.995
    endloop
  endfacet
  facet normal 0 0 -1
    outer loop
      vertex -10 -18 -4.005
      vertex 10 18 -4.005
      vertex 10 -18 -4.005
    endloop
  endfacet
  facet normal -0 0 -1
    outer loop
      vertex 10 18 -4.005
      vertex -10 -18 -4.005
      vertex -10 18 -4.005
    endloop
  endfacet
  facet normal -1 0 0
    outer loop
      vertex -17 -21 5.995
      vertex -17 21 6.005
      vertex -17 21 5.995
    endloop
  endfacet
  facet normal -1 -0 0
    outer loop
      vertex -17 21 6.005
      vertex -17 -21 5.995
      vertex -17 -21 6.005
    endloop
  endfacet
  facet normal -0.819232 0 -0.573462
    outer loop
      vertex -10 -18 -4.005
      vertex -17 21 5.995
      vertex -10 18 -4.005
    endloop
  endfacet
  facet normal -0.819232 -0 -0.573462
    outer loop
      vertex -17 21 5.995
      vertex -10 -18 -4.005
      vertex -17 -21 5.995
    endloop
  endfacet
  facet normal 0 -0.957826 -0.287348
    outer loop
      vertex -10 -18 -4.005
      vertex 17 -21 5.995
      vertex -17 -21 5.995
    endloop
  endfacet
  facet normal 0 -0.957826 -0.287348
    outer loop
      vertex 17 -21 5.995
      vertex -10 -18 -4.005
      vertex 10 -18 -4.005
    endloop
  endfacet
  facet normal 0 1 -0
    outer loop
      vertex 17 21 5.995
      vertex -17 21 6.005
      vertex 17 21 6.005
    endloop
  endfacet
  facet normal 0 1 0
    outer loop
      vertex -17 21 6.005
      vertex 17 21 5.995
      vertex -17 21 5.995
    endloop
  endfacet
  facet normal 0 0.957826 -0.287348
    outer loop
      vertex 17 21 5.995
      vertex 4.25 20.403 4.005
      vertex -17 21 5.995
    endloop
  endfacet
  facet normal 1.28448e-008 0.957826 -0.287348
    outer loop
      vertex 10 18 -4.005
      vertex 4.25 20.403 4.005
      vertex 17 21 5.995
    endloop
  endfacet
  facet normal 0 0.957826 -0.287348
    outer loop
      vertex 4.25 19.2 -0.00499916
      vertex 10 18 -4.005
      vertex -4.25 19.2 -0.00499916
    endloop
  endfacet
  facet normal 1.90476e-007 0.957826 -0.287348
    outer loop
      vertex 4.25 20.403 4.005
      vertex 10 18 -4.005
      vertex 4.25 19.2 -0.00499916
    endloop
  endfacet
  facet normal 0 0.957826 -0.287348
    outer loop
      vertex -4.25 20.403 4.005
      vertex -17 21 5.995
      vertex 4.25 20.403 4.005
    endloop
  endfacet
  facet normal -1.90476e-007 0.957826 -0.287348
    outer loop
      vertex -10 18 -4.005
      vertex -4.25 20.403 4.005
      vertex -4.25 19.2 -0.00499916
    endloop
  endfacet
  facet normal -1.28448e-008 0.957826 -0.287348
    outer loop
      vertex -4.25 20.403 4.005
      vertex -10 18 -4.005
      vertex -17 21 5.995
    endloop
  endfacet
  facet normal 0 0.957826 -0.287348
    outer loop
      vertex -10 18 -4.005
      vertex -4.25 19.2 -0.00499916
      vertex 10 18 -4.005
    endloop
  endfacet
  facet normal -0.970142 0 0.242536
    outer loop
      vertex 9 -17 -0.00499916
      vertex 10 18 3.995
      vertex 9 17 -0.00499916
    endloop
  endfacet
  facet normal -0.970142 0 0.242536
    outer loop
      vertex 10 18 3.995
      vertex 9 -17 -0.00499916
      vertex 10 -18 3.995
    endloop
  endfacet
  facet normal 0 1 -0
    outer loop
      vertex 10 -18 3.995
      vertex -10 -18 6.005
      vertex 10 -18 6.005
    endloop
  endfacet
  facet normal 0 1 0
    outer loop
      vertex -10 -18 6.005
      vertex 10 -18 3.995
      vertex -10 -18 3.995
    endloop
  endfacet
  facet normal -1 0 0
    outer loop
      vertex 10 -18 3.995
      vertex 10 18 6.005
      vertex 10 18 3.995
    endloop
  endfacet
  facet normal -1 -0 0
    outer loop
      vertex 10 18 6.005
      vertex 10 -18 3.995
      vertex 10 -18 6.005
    endloop
  endfacet
  facet normal 0 0 1
    outer loop
      vertex 4.25 19.2 -0.00499916
      vertex -4.25 19.2 -0.00499916
      vertex 4.25 17 -0.00499916
    endloop
  endfacet
  facet normal -0 0 1
    outer loop
      vertex 4.25 17 -0.00499916
      vertex 9 -17 -0.00499916
      vertex 9 17 -0.00499916
    endloop
  endfacet
  facet normal 0 0 1
    outer loop
      vertex -4.25 17 -0.00499916
      vertex 4.25 17 -0.00499916
      vertex -4.25 19.2 -0.00499916
    endloop
  endfacet
  facet normal 0 0 1
    outer loop
      vertex 4.25 17 -0.00499916
      vertex -4.25 17 -0.00499916
      vertex 9 -17 -0.00499916
    endloop
  endfacet
  facet normal 0 0 1
    outer loop
      vertex -9 -17 -0.00499916
      vertex -4.25 17 -0.00499916
      vertex -9 17 -0.00499916
    endloop
  endfacet
  facet normal 0 0 1
    outer loop
      vertex -4.25 17 -0.00499916
      vertex -9 -17 -0.00499916
      vertex 9 -17 -0.00499916
    endloop
  endfacet
  facet normal 1 -0 0
    outer loop
      vertex -10 -18 6.005
      vertex -10 18 3.995
      vertex -10 18 6.005
    endloop
  endfacet
  facet normal 1 0 0
    outer loop
      vertex -10 18 3.995
      vertex -10 -18 6.005
      vertex -10 -18 3.995
    endloop
  endfacet
  facet normal 0.970142 0 0.242536
    outer loop
      vertex -10 18 3.995
      vertex -9 -17 -0.00499916
      vertex -9 17 -0.00499916
    endloop
  endfacet
  facet normal 0.970142 0 0.242536
    outer loop
      vertex -9 -17 -0.00499916
      vertex -10 18 3.995
      vertex -10 -18 3.995
    endloop
  endfacet
  facet normal 0 0.970142 0.242536
    outer loop
      vertex 9 -17 -0.00499916
      vertex -10 -18 3.995
      vertex 10 -18 3.995
    endloop
  endfacet
  facet normal 0 0.970142 0.242536
    outer loop
      vertex -10 -18 3.995
      vertex 9 -17 -0.00499916
      vertex -9 -17 -0.00499916
    endloop
  endfacet
  facet normal 0 -1 0
    outer loop
      vertex -10 18 6.005
      vertex -4.25 18 4.005
      vertex 10 18 6.005
    endloop
  endfacet
  facet normal 0 -1 0
    outer loop
      vertex -10 18 3.995
      vertex -4.25 18 4.005
      vertex -10 18 6.005
    endloop
  endfacet
  facet normal 0 -1 -0
    outer loop
      vertex -4.25 18 4.005
      vertex -10 18 3.995
      vertex -4.25 18 3.995
    endloop
  endfacet
  facet normal 0 -1 0
    outer loop
      vertex 4.25 18 4.005
      vertex 10 18 6.005
      vertex -4.25 18 4.005
    endloop
  endfacet
  facet normal 0 -1 0
    outer loop
      vertex 10 18 3.995
      vertex 4.25 18 4.005
      vertex 4.25 18 3.995
    endloop
  endfacet
  facet normal 0 -1 0
    outer loop
      vertex 4.25 18 4.005
      vertex 10 18 3.995
      vertex 10 18 6.005
    endloop
  endfacet
  facet normal 0 -0.970142 0.242536
    outer loop
      vertex 9 17 -0.00499916
      vertex 4.25 18 3.995
      vertex 4.25 17 -0.00499916
    endloop
  endfacet
  facet normal 0 -0.970142 0.242536
    outer loop
      vertex 4.25 18 3.995
      vertex 9 17 -0.00499916
      vertex 10 18 3.995
    endloop
  endfacet
  facet normal 0 -0.970142 0.242536
    outer loop
      vertex -9 17 -0.00499916
      vertex -4.25 18 3.995
      vertex -10 18 3.995
    endloop
  endfacet
  facet normal 0 -0.970142 0.242536
    outer loop
      vertex -4.25 18 3.995
      vertex -9 17 -0.00499916
      vertex -4.25 17 -0.00499916
    endloop
  endfacet
  facet normal 1 0 0
    outer loop
      vertex -4.25 18 3.995
      vertex -4.25 20.403 4.005
      vertex -4.25 18 4.005
    endloop
  endfacet
  facet normal 1 0 0
    outer loop
      vertex -4.25 20.403 4.005
      vertex -4.25 18 3.995
      vertex -4.25 19.2 -0.00499916
    endloop
  endfacet
  facet normal 1 0 0
    outer loop
      vertex -4.25 19.2 -0.00499916
      vertex -4.25 18 3.995
      vertex -4.25 17 -0.00499916
    endloop
  endfacet
  facet normal 0 0 -1
    outer loop
      vertex -4.25 18 4.005
      vertex 4.25 20.403 4.005
      vertex 4.25 18 4.005
    endloop
  endfacet
  facet normal -0 0 -1
    outer loop
      vertex 4.25 20.403 4.005
      vertex -4.25 18 4.005
      vertex -4.25 20.403 4.005
    endloop
  endfacet
  facet normal -1 0 0
    outer loop
      vertex 4.25 19.2 -0.00499916
      vertex 4.25 17 -0.00499916
      vertex 4.25 18 3.995
    endloop
  endfacet
  facet normal -1 0 0
    outer loop
      vertex 4.25 18 3.995
      vertex 4.25 20.403 4.005
      vertex 4.25 19.2 -0.00499916
    endloop
  endfacet
  facet normal -1 -0 0
    outer loop
      vertex 4.25 20.403 4.005
      vertex 4.25 18 3.995
      vertex 4.25 18 4.005
    endloop
  endfacet
endsolid OpenSCAD_Model
