solid oledscreenmount
facet normal 0.0 0.0 1.0
  outer loop
    vertex -162.38587911421766 82.23228483738276 3.9999999999999996
    vertex -168.18587911421767 88.03228483738276 3.9999999999999996
    vertex -168.18587911421767 82.23228483738276 3.9999999999999996
  endloop
endfacet
facet normal 0.0 0.0 1.0
  outer loop
    vertex -168.18587911421767 88.03228483738276 3.9999999999999996
    vertex -162.38587911421766 82.23228483738276 3.9999999999999996
    vertex -162.38587911421766 88.03228483738276 3.9999999999999996
  endloop
endfacet
facet normal -0.0 -1.0 -0.0
  outer loop
    vertex -162.38587911421766 82.23228483738276 3.9999999999999996
    vertex -168.18587911421767 82.23228483738276 0.0
    vertex -162.38587911421766 82.23228483738276 0.0
  endloop
endfacet
facet normal -0.0 -1.0 -0.0
  outer loop
    vertex -168.18587911421767 82.23228483738276 0.0
    vertex -162.38587911421766 82.23228483738276 3.9999999999999996
    vertex -168.18587911421767 82.23228483738276 3.9999999999999996
  endloop
endfacet
facet normal -1.0 0.0 0.0
  outer loop
    vertex -162.65131893960086 102.51481965994036 3.9999999999999982
    vertex -162.65131893960086 97.41481965994036 0.0
    vertex -162.65131893960086 97.41481965994036 3.9999999999999982
  endloop
endfacet
facet normal -1.0 0.0 0.0
  outer loop
    vertex -162.65131893960086 97.41481965994036 0.0
    vertex -162.65131893960086 102.51481965994036 3.9999999999999982
    vertex -162.65131893960086 102.51481965994036 0.0
  endloop
endfacet
facet normal -1.0 0.0 0.0
  outer loop
    vertex -168.18587911421767 88.03228483738276 3.9999999999999996
    vertex -168.18587911421767 82.23228483738276 0.0
    vertex -168.18587911421767 82.23228483738276 3.9999999999999996
  endloop
endfacet
facet normal -1.0 0.0 0.0
  outer loop
    vertex -168.18587911421767 82.23228483738276 0.0
    vertex -168.18587911421767 88.03228483738276 3.9999999999999996
    vertex -168.18587911421767 88.03228483738276 0.0
  endloop
endfacet
facet normal 1.0 0.0 0.0
  outer loop
    vertex -162.38587911421766 88.03228483738276 0.0
    vertex -162.38587911421766 82.23228483738276 3.9999999999999996
    vertex -162.38587911421766 82.23228483738276 0.0
  endloop
endfacet
facet normal 1.0 0.0 0.0
  outer loop
    vertex -162.38587911421766 82.23228483738276 3.9999999999999996
    vertex -162.38587911421766 88.03228483738276 0.0
    vertex -162.38587911421766 88.03228483738276 3.9999999999999996
  endloop
endfacet
facet normal 1.0 0.0 0.0
  outer loop
    vertex -157.45131893960087 102.51481965994036 0.0
    vertex -157.45131893960087 97.41481965994036 3.9999999999999982
    vertex -157.45131893960087 97.41481965994036 0.0
  endloop
endfacet
facet normal 1.0 0.0 0.0
  outer loop
    vertex -157.45131893960087 97.41481965994036 3.9999999999999982
    vertex -157.45131893960087 102.51481965994036 0.0
    vertex -157.45131893960087 102.51481965994036 3.9999999999999982
  endloop
endfacet
facet normal -0.0 1.0 0.0
  outer loop
    vertex -168.18587911421767 88.03228483738276 3.9999999999999996
    vertex -162.38587911421766 88.03228483738276 0.0
    vertex -168.18587911421767 88.03228483738276 0.0
  endloop
endfacet
facet normal -0.0 1.0 0.0
  outer loop
    vertex -162.38587911421766 88.03228483738276 0.0
    vertex -168.18587911421767 88.03228483738276 3.9999999999999996
    vertex -162.38587911421766 88.03228483738276 3.9999999999999996
  endloop
endfacet
facet normal -0.0 -0.0 1.0
  outer loop
    vertex -157.45131893960087 97.41481965994036 3.9999999999999982
    vertex -162.65131893960086 102.51481965994036 3.9999999999999982
    vertex -162.65131893960086 97.41481965994036 3.9999999999999982
  endloop
endfacet
facet normal -0.0 -0.0 1.0
  outer loop
    vertex -162.65131893960086 102.51481965994036 3.9999999999999982
    vertex -157.45131893960087 97.41481965994036 3.9999999999999982
    vertex -157.45131893960087 102.51481965994036 3.9999999999999982
  endloop
endfacet
facet normal -0.0 1.0 0.0
  outer loop
    vertex -162.65131893960086 102.51481965994036 3.9999999999999982
    vertex -157.45131893960087 102.51481965994036 0.0
    vertex -162.65131893960086 102.51481965994036 0.0
  endloop
endfacet
facet normal -0.0 1.0 0.0
  outer loop
    vertex -157.45131893960087 102.51481965994036 0.0
    vertex -162.65131893960086 102.51481965994036 3.9999999999999982
    vertex -157.45131893960087 102.51481965994036 3.9999999999999982
  endloop
endfacet
facet normal -0.0 -1.0 -0.0
  outer loop
    vertex -157.45131893960087 97.41481965994036 3.9999999999999982
    vertex -162.65131893960086 97.41481965994036 0.0
    vertex -157.45131893960087 97.41481965994036 0.0
  endloop
endfacet
facet normal -0.0 -1.0 -0.0
  outer loop
    vertex -162.65131893960086 97.41481965994036 0.0
    vertex -157.45131893960087 97.41481965994036 3.9999999999999982
    vertex -162.65131893960086 97.41481965994036 3.9999999999999982
  endloop
endfacet
facet normal 0.0 0.0 -1.0
  outer loop
    vertex -157.45131893960087 102.51481965994036 0.0
    vertex -162.65131893960086 97.41481965994036 0.0
    vertex -162.65131893960086 102.51481965994036 0.0
  endloop
endfacet
facet normal 0.0 0.0 -1.0
  outer loop
    vertex -162.65131893960086 97.41481965994036 0.0
    vertex -157.45131893960087 102.51481965994036 0.0
    vertex -157.45131893960087 97.41481965994036 0.0
  endloop
endfacet
facet normal 0.0 0.0 -1.0
  outer loop
    vertex -163.58815246849971 94.65303554918735 0.0
    vertex -168.58815246849971 89.65303554918734 0.0
    vertex -168.58815246849971 94.65303554918735 0.0
  endloop
endfacet
facet normal 0.0 0.0 -1.0
  outer loop
    vertex -168.58815246849971 89.65303554918734 0.0
    vertex -163.58815246849971 94.65303554918735 0.0
    vertex -163.58815246849971 89.65303554918734 0.0
  endloop
endfacet
facet normal -0.0 -1.0 -0.0
  outer loop
    vertex -163.58815246849971 89.65303554918734 3.9999999999999996
    vertex -168.58815246849971 89.65303554918734 0.0
    vertex -163.58815246849971 89.65303554918734 0.0
  endloop
endfacet
facet normal -0.0 -1.0 -0.0
  outer loop
    vertex -168.58815246849971 89.65303554918734 0.0
    vertex -163.58815246849971 89.65303554918734 3.9999999999999996
    vertex -168.58815246849971 89.65303554918734 3.9999999999999996
  endloop
endfacet
facet normal 0.0 0.0 -1.0
  outer loop
    vertex -155.64419924364438 94.37867923142801 0.0
    vertex -160.84419924364437 89.178679231428 0.0
    vertex -160.84419924364437 94.37867923142801 0.0
  endloop
endfacet
facet normal 0.0 0.0 -1.0
  outer loop
    vertex -160.84419924364437 89.178679231428 0.0
    vertex -155.64419924364438 94.37867923142801 0.0
    vertex -155.64419924364438 89.178679231428 0.0
  endloop
endfacet
facet normal -1.0 0.0 0.0
  outer loop
    vertex -160.84419924364437 94.37867923142801 3.9999999999999996
    vertex -160.84419924364437 89.178679231428 0.0
    vertex -160.84419924364437 89.178679231428 3.9999999999999996
  endloop
endfacet
facet normal -1.0 0.0 0.0
  outer loop
    vertex -160.84419924364437 89.178679231428 0.0
    vertex -160.84419924364437 94.37867923142801 3.9999999999999996
    vertex -160.84419924364437 94.37867923142801 0.0
  endloop
endfacet
facet normal 1.0 0.0 0.0
  outer loop
    vertex -155.64419924364438 94.37867923142801 0.0
    vertex -155.64419924364438 89.178679231428 3.9999999999999996
    vertex -155.64419924364438 89.178679231428 0.0
  endloop
endfacet
facet normal 1.0 0.0 0.0
  outer loop
    vertex -155.64419924364438 89.178679231428 3.9999999999999996
    vertex -155.64419924364438 94.37867923142801 0.0
    vertex -155.64419924364438 94.37867923142801 3.9999999999999996
  endloop
endfacet
facet normal -0.0 -0.0 1.0
  outer loop
    vertex -163.58815246849971 89.65303554918734 3.9999999999999996
    vertex -168.58815246849971 94.65303554918735 3.9999999999999996
    vertex -168.58815246849971 89.65303554918734 3.9999999999999996
  endloop
endfacet
facet normal -0.0 -0.0 1.0
  outer loop
    vertex -168.58815246849971 94.65303554918735 3.9999999999999996
    vertex -163.58815246849971 89.65303554918734 3.9999999999999996
    vertex -163.58815246849971 94.65303554918735 3.9999999999999996
  endloop
endfacet
facet normal -1.0 0.0 0.0
  outer loop
    vertex -168.58815246849971 94.65303554918735 3.9999999999999996
    vertex -168.58815246849971 89.65303554918734 0.0
    vertex -168.58815246849971 89.65303554918734 3.9999999999999996
  endloop
endfacet
facet normal -1.0 0.0 0.0
  outer loop
    vertex -168.58815246849971 89.65303554918734 0.0
    vertex -168.58815246849971 94.65303554918735 3.9999999999999996
    vertex -168.58815246849971 94.65303554918735 0.0
  endloop
endfacet
facet normal 0.0 0.0 1.0
  outer loop
    vertex -155.64419924364438 89.178679231428 3.9999999999999996
    vertex -160.84419924364437 94.37867923142801 3.9999999999999996
    vertex -160.84419924364437 89.178679231428 3.9999999999999996
  endloop
endfacet
facet normal 0.0 0.0 1.0
  outer loop
    vertex -160.84419924364437 94.37867923142801 3.9999999999999996
    vertex -155.64419924364438 89.178679231428 3.9999999999999996
    vertex -155.64419924364438 94.37867923142801 3.9999999999999996
  endloop
endfacet
facet normal 0.0 0.0 -1.0
  outer loop
    vertex -148.55625464816117 94.7901173763407 0.0
    vertex -153.85625464816118 89.49011737634069 0.0
    vertex -153.85625464816118 94.7901173763407 0.0
  endloop
endfacet
facet normal 0.0 0.0 -1.0
  outer loop
    vertex -153.85625464816118 89.49011737634069 0.0
    vertex -148.55625464816117 94.7901173763407 0.0
    vertex -148.55625464816117 89.49011737634069 0.0
  endloop
endfacet
facet normal -0.0 1.0 0.0
  outer loop
    vertex -168.58815246849971 94.65303554918735 3.9999999999999996
    vertex -163.58815246849971 94.65303554918735 0.0
    vertex -168.58815246849971 94.65303554918735 0.0
  endloop
endfacet
facet normal -0.0 1.0 0.0
  outer loop
    vertex -163.58815246849971 94.65303554918735 0.0
    vertex -168.58815246849971 94.65303554918735 3.9999999999999996
    vertex -163.58815246849971 94.65303554918735 3.9999999999999996
  endloop
endfacet
facet normal 0.0 0.0 1.0
  outer loop
    vertex -148.55625464816117 89.49011737634069 3.9999999999999996
    vertex -153.85625464816118 94.7901173763407 3.9999999999999996
    vertex -153.85625464816118 89.49011737634069 3.9999999999999996
  endloop
endfacet
facet normal 0.0 0.0 1.0
  outer loop
    vertex -153.85625464816118 94.7901173763407 3.9999999999999996
    vertex -148.55625464816117 89.49011737634069 3.9999999999999996
    vertex -148.55625464816117 94.7901173763407 3.9999999999999996
  endloop
endfacet
facet normal -0.0 1.0 0.0
  outer loop
    vertex -160.84419924364437 94.37867923142801 3.9999999999999996
    vertex -155.64419924364438 94.37867923142801 0.0
    vertex -160.84419924364437 94.37867923142801 0.0
  endloop
endfacet
facet normal -0.0 1.0 0.0
  outer loop
    vertex -155.64419924364438 94.37867923142801 0.0
    vertex -160.84419924364437 94.37867923142801 3.9999999999999996
    vertex -155.64419924364438 94.37867923142801 3.9999999999999996
  endloop
endfacet
facet normal -1.0 0.0 0.0
  outer loop
    vertex -153.85625464816118 94.7901173763407 3.9999999999999996
    vertex -153.85625464816118 89.49011737634069 0.0
    vertex -153.85625464816118 89.49011737634069 3.9999999999999996
  endloop
endfacet
facet normal -1.0 0.0 0.0
  outer loop
    vertex -153.85625464816118 89.49011737634069 0.0
    vertex -153.85625464816118 94.7901173763407 3.9999999999999996
    vertex -153.85625464816118 94.7901173763407 0.0
  endloop
endfacet
facet normal 1.0 0.0 0.0
  outer loop
    vertex -163.58815246849971 94.65303554918735 0.0
    vertex -163.58815246849971 89.65303554918734 3.9999999999999996
    vertex -163.58815246849971 89.65303554918734 0.0
  endloop
endfacet
facet normal 1.0 0.0 0.0
  outer loop
    vertex -163.58815246849971 89.65303554918734 3.9999999999999996
    vertex -163.58815246849971 94.65303554918735 0.0
    vertex -163.58815246849971 94.65303554918735 3.9999999999999996
  endloop
endfacet
facet normal -0.0 -1.0 -0.0
  outer loop
    vertex -155.64419924364438 89.178679231428 3.9999999999999996
    vertex -160.84419924364437 89.178679231428 0.0
    vertex -155.64419924364438 89.178679231428 0.0
  endloop
endfacet
facet normal -0.0 -1.0 -0.0
  outer loop
    vertex -160.84419924364437 89.178679231428 0.0
    vertex -155.64419924364438 89.178679231428 3.9999999999999996
    vertex -160.84419924364437 89.178679231428 3.9999999999999996
  endloop
endfacet
facet normal -0.0 1.0 0.0
  outer loop
    vertex -153.85625464816118 94.7901173763407 3.9999999999999996
    vertex -148.55625464816117 94.7901173763407 0.0
    vertex -153.85625464816118 94.7901173763407 0.0
  endloop
endfacet
facet normal -0.0 1.0 0.0
  outer loop
    vertex -148.55625464816117 94.7901173763407 0.0
    vertex -153.85625464816118 94.7901173763407 3.9999999999999996
    vertex -148.55625464816117 94.7901173763407 3.9999999999999996
  endloop
endfacet
facet normal 0.0 0.0 -1.0
  outer loop
    vertex -142.08700421274168 87.96434287070576 0.0
    vertex -147.58700421274165 82.46434287070576 0.0
    vertex -147.58700421274165 87.96434287070576 0.0
  endloop
endfacet
facet normal 0.0 0.0 -1.0
  outer loop
    vertex -147.58700421274165 82.46434287070576 0.0
    vertex -142.08700421274168 87.96434287070576 0.0
    vertex -142.08700421274168 82.46434287070576 0.0
  endloop
endfacet
facet normal -0.0 -1.0 -0.0
  outer loop
    vertex -141.3748197180689 89.53383314344921 3.9999999999999996
    vertex -146.77481971806887 89.53383314344921 0.0
    vertex -141.3748197180689 89.53383314344921 0.0
  endloop
endfacet
facet normal -0.0 -1.0 -0.0
  outer loop
    vertex -146.77481971806887 89.53383314344921 0.0
    vertex -141.3748197180689 89.53383314344921 3.9999999999999996
    vertex -146.77481971806887 89.53383314344921 3.9999999999999996
  endloop
endfacet
facet normal 0.0 0.0 1.0
  outer loop
    vertex -142.08700421274168 82.46434287070576 3.9999999999999996
    vertex -147.58700421274165 87.96434287070576 3.9999999999999996
    vertex -147.58700421274165 82.46434287070576 3.9999999999999996
  endloop
endfacet
facet normal 0.0 0.0 1.0
  outer loop
    vertex -147.58700421274165 87.96434287070576 3.9999999999999996
    vertex -142.08700421274168 82.46434287070576 3.9999999999999996
    vertex -142.08700421274168 87.96434287070576 3.9999999999999996
  endloop
endfacet
facet normal 1.0 0.0 0.0
  outer loop
    vertex -142.08700421274168 87.96434287070576 0.0
    vertex -142.08700421274168 82.46434287070576 3.9999999999999996
    vertex -142.08700421274168 82.46434287070576 0.0
  endloop
endfacet
facet normal 1.0 0.0 0.0
  outer loop
    vertex -142.08700421274168 82.46434287070576 3.9999999999999996
    vertex -142.08700421274168 87.96434287070576 0.0
    vertex -142.08700421274168 87.96434287070576 3.9999999999999996
  endloop
endfacet
facet normal 0.0 0.0 -1.0
  outer loop
    vertex -155.06081412565686 87.91750533090747 0.0
    vertex -160.76081412565685 82.21750533090747 0.0
    vertex -160.76081412565685 87.91750533090747 0.0
  endloop
endfacet
facet normal 0.0 0.0 -1.0
  outer loop
    vertex -160.76081412565685 82.21750533090747 0.0
    vertex -155.06081412565686 87.91750533090747 0.0
    vertex -155.06081412565686 82.21750533090747 0.0
  endloop
endfacet
facet normal -0.0 -1.0 -0.0
  outer loop
    vertex -142.08700421274168 82.46434287070576 3.9999999999999996
    vertex -147.58700421274165 82.46434287070576 0.0
    vertex -142.08700421274168 82.46434287070576 0.0
  endloop
endfacet
facet normal -0.0 -1.0 -0.0
  outer loop
    vertex -147.58700421274165 82.46434287070576 0.0
    vertex -142.08700421274168 82.46434287070576 3.9999999999999996
    vertex -147.58700421274165 82.46434287070576 3.9999999999999996
  endloop
endfacet
facet normal -1.0 0.0 0.0
  outer loop
    vertex -147.58700421274165 87.96434287070576 3.9999999999999996
    vertex -147.58700421274165 82.46434287070576 0.0
    vertex -147.58700421274165 82.46434287070576 3.9999999999999996
  endloop
endfacet
facet normal -1.0 0.0 0.0
  outer loop
    vertex -147.58700421274165 82.46434287070576 0.0
    vertex -147.58700421274165 87.96434287070576 3.9999999999999996
    vertex -147.58700421274165 87.96434287070576 0.0
  endloop
endfacet
facet normal 0.0 0.0 -1.0
  outer loop
    vertex -162.38587911421766 88.03228483738276 0.0
    vertex -168.18587911421767 82.23228483738276 0.0
    vertex -168.18587911421767 88.03228483738276 0.0
  endloop
endfacet
facet normal 0.0 0.0 -1.0
  outer loop
    vertex -168.18587911421767 82.23228483738276 0.0
    vertex -162.38587911421766 88.03228483738276 0.0
    vertex -162.38587911421766 82.23228483738276 0.0
  endloop
endfacet
facet normal 1.0 0.0 0.0
  outer loop
    vertex -148.55625464816117 94.7901173763407 0.0
    vertex -148.55625464816117 89.49011737634069 3.9999999999999996
    vertex -148.55625464816117 89.49011737634069 0.0
  endloop
endfacet
facet normal 1.0 0.0 0.0
  outer loop
    vertex -148.55625464816117 89.49011737634069 3.9999999999999996
    vertex -148.55625464816117 94.7901173763407 0.0
    vertex -148.55625464816117 94.7901173763407 3.9999999999999996
  endloop
endfacet
facet normal -0.0 -1.0 -0.0
  outer loop
    vertex -148.55625464816117 89.49011737634069 3.9999999999999996
    vertex -153.85625464816118 89.49011737634069 0.0
    vertex -148.55625464816117 89.49011737634069 0.0
  endloop
endfacet
facet normal -0.0 -1.0 -0.0
  outer loop
    vertex -153.85625464816118 89.49011737634069 0.0
    vertex -148.55625464816117 89.49011737634069 3.9999999999999996
    vertex -153.85625464816118 89.49011737634069 3.9999999999999996
  endloop
endfacet
facet normal -0.0 1.0 0.0
  outer loop
    vertex -146.77481971806887 94.9338331434492 3.9999999999999996
    vertex -141.3748197180689 94.9338331434492 0.0
    vertex -146.77481971806887 94.9338331434492 0.0
  endloop
endfacet
facet normal -0.0 1.0 0.0
  outer loop
    vertex -141.3748197180689 94.9338331434492 0.0
    vertex -146.77481971806887 94.9338331434492 3.9999999999999996
    vertex -141.3748197180689 94.9338331434492 3.9999999999999996
  endloop
endfacet
facet normal 0.0 0.0 -1.0
  outer loop
    vertex -141.3748197180689 94.9338331434492 0.0
    vertex -146.77481971806887 89.53383314344921 0.0
    vertex -146.77481971806887 94.9338331434492 0.0
  endloop
endfacet
facet normal 0.0 0.0 -1.0
  outer loop
    vertex -146.77481971806887 89.53383314344921 0.0
    vertex -141.3748197180689 94.9338331434492 0.0
    vertex -141.3748197180689 89.53383314344921 0.0
  endloop
endfacet
facet normal 1.0 0.0 0.0
  outer loop
    vertex -141.3748197180689 94.9338331434492 0.0
    vertex -141.3748197180689 89.53383314344921 3.9999999999999996
    vertex -141.3748197180689 89.53383314344921 0.0
  endloop
endfacet
facet normal 1.0 0.0 0.0
  outer loop
    vertex -141.3748197180689 89.53383314344921 3.9999999999999996
    vertex -141.3748197180689 94.9338331434492 0.0
    vertex -141.3748197180689 94.9338331434492 3.9999999999999996
  endloop
endfacet
facet normal 0.0 0.0 1.0
  outer loop
    vertex -141.3748197180689 89.53383314344921 3.9999999999999996
    vertex -146.77481971806887 94.9338331434492 3.9999999999999996
    vertex -146.77481971806887 89.53383314344921 3.9999999999999996
  endloop
endfacet
facet normal 0.0 0.0 1.0
  outer loop
    vertex -146.77481971806887 94.9338331434492 3.9999999999999996
    vertex -141.3748197180689 89.53383314344921 3.9999999999999996
    vertex -141.3748197180689 94.9338331434492 3.9999999999999996
  endloop
endfacet
facet normal -1.0 0.0 0.0
  outer loop
    vertex -146.77481971806887 94.9338331434492 3.9999999999999996
    vertex -146.77481971806887 89.53383314344921 0.0
    vertex -146.77481971806887 89.53383314344921 3.9999999999999996
  endloop
endfacet
facet normal -1.0 0.0 0.0
  outer loop
    vertex -146.77481971806887 89.53383314344921 0.0
    vertex -146.77481971806887 94.9338331434492 3.9999999999999996
    vertex -146.77481971806887 94.9338331434492 0.0
  endloop
endfacet
facet normal 0.0 0.0 -1.0
  outer loop
    vertex -148.48409168086883 87.4105009241634 0.0
    vertex -154.0840916808688 81.8105009241634 0.0
    vertex -154.0840916808688 87.4105009241634 0.0
  endloop
endfacet
facet normal 0.0 0.0 -1.0
  outer loop
    vertex -154.0840916808688 81.8105009241634 0.0
    vertex -148.48409168086883 87.4105009241634 0.0
    vertex -148.48409168086883 81.8105009241634 0.0
  endloop
endfacet
facet normal -0.0 -1.0 -0.0
  outer loop
    vertex -148.48409168086883 81.8105009241634 3.9999999999999996
    vertex -154.0840916808688 81.8105009241634 0.0
    vertex -148.48409168086883 81.8105009241634 0.0
  endloop
endfacet
facet normal -0.0 -1.0 -0.0
  outer loop
    vertex -154.0840916808688 81.8105009241634 0.0
    vertex -148.48409168086883 81.8105009241634 3.9999999999999996
    vertex -154.0840916808688 81.8105009241634 3.9999999999999996
  endloop
endfacet
facet normal 0.0 0.0 1.0
  outer loop
    vertex -148.48409168086883 81.8105009241634 3.9999999999999996
    vertex -154.0840916808688 87.4105009241634 3.9999999999999996
    vertex -154.0840916808688 81.8105009241634 3.9999999999999996
  endloop
endfacet
facet normal 0.0 0.0 1.0
  outer loop
    vertex -154.0840916808688 87.4105009241634 3.9999999999999996
    vertex -148.48409168086883 81.8105009241634 3.9999999999999996
    vertex -148.48409168086883 87.4105009241634 3.9999999999999996
  endloop
endfacet
facet normal 0.0 0.0 1.0
  outer loop
    vertex -155.06081412565686 82.21750533090747 3.9999999999999996
    vertex -160.76081412565685 87.91750533090747 3.9999999999999996
    vertex -160.76081412565685 82.21750533090747 3.9999999999999996
  endloop
endfacet
facet normal 0.0 0.0 1.0
  outer loop
    vertex -160.76081412565685 87.91750533090747 3.9999999999999996
    vertex -155.06081412565686 82.21750533090747 3.9999999999999996
    vertex -155.06081412565686 87.91750533090747 3.9999999999999996
  endloop
endfacet
facet normal -1.0 0.0 0.0
  outer loop
    vertex -160.76081412565685 87.91750533090747 3.9999999999999996
    vertex -160.76081412565685 82.21750533090747 0.0
    vertex -160.76081412565685 82.21750533090747 3.9999999999999996
  endloop
endfacet
facet normal -1.0 0.0 0.0
  outer loop
    vertex -160.76081412565685 82.21750533090747 0.0
    vertex -160.76081412565685 87.91750533090747 3.9999999999999996
    vertex -160.76081412565685 87.91750533090747 0.0
  endloop
endfacet
facet normal -0.0 1.0 0.0
  outer loop
    vertex -160.76081412565685 87.91750533090747 3.9999999999999996
    vertex -155.06081412565686 87.91750533090747 0.0
    vertex -160.76081412565685 87.91750533090747 0.0
  endloop
endfacet
facet normal -0.0 1.0 0.0
  outer loop
    vertex -155.06081412565686 87.91750533090747 0.0
    vertex -160.76081412565685 87.91750533090747 3.9999999999999996
    vertex -155.06081412565686 87.91750533090747 3.9999999999999996
  endloop
endfacet
facet normal 1.0 0.0 0.0
  outer loop
    vertex -155.06081412565686 87.91750533090747 0.0
    vertex -155.06081412565686 82.21750533090747 3.9999999999999996
    vertex -155.06081412565686 82.21750533090747 0.0
  endloop
endfacet
facet normal 1.0 0.0 0.0
  outer loop
    vertex -155.06081412565686 82.21750533090747 3.9999999999999996
    vertex -155.06081412565686 87.91750533090747 0.0
    vertex -155.06081412565686 87.91750533090747 3.9999999999999996
  endloop
endfacet
facet normal -0.0 1.0 0.0
  outer loop
    vertex -147.58700421274165 87.96434287070576 3.9999999999999996
    vertex -142.08700421274168 87.96434287070576 0.0
    vertex -147.58700421274165 87.96434287070576 0.0
  endloop
endfacet
facet normal -0.0 1.0 0.0
  outer loop
    vertex -142.08700421274168 87.96434287070576 0.0
    vertex -147.58700421274165 87.96434287070576 3.9999999999999996
    vertex -142.08700421274168 87.96434287070576 3.9999999999999996
  endloop
endfacet
facet normal -0.0 1.0 0.0
  outer loop
    vertex -154.0840916808688 87.4105009241634 3.9999999999999996
    vertex -148.48409168086883 87.4105009241634 0.0
    vertex -154.0840916808688 87.4105009241634 0.0
  endloop
endfacet
facet normal -0.0 1.0 0.0
  outer loop
    vertex -148.48409168086883 87.4105009241634 0.0
    vertex -154.0840916808688 87.4105009241634 3.9999999999999996
    vertex -148.48409168086883 87.4105009241634 3.9999999999999996
  endloop
endfacet
facet normal -0.0 -1.0 -0.0
  outer loop
    vertex -155.06081412565686 82.21750533090747 3.9999999999999996
    vertex -160.76081412565685 82.21750533090747 0.0
    vertex -155.06081412565686 82.21750533090747 0.0
  endloop
endfacet
facet normal -0.0 -1.0 -0.0
  outer loop
    vertex -160.76081412565685 82.21750533090747 0.0
    vertex -155.06081412565686 82.21750533090747 3.9999999999999996
    vertex -160.76081412565685 82.21750533090747 3.9999999999999996
  endloop
endfacet
facet normal -1.0 0.0 0.0
  outer loop
    vertex -154.0840916808688 87.4105009241634 3.9999999999999996
    vertex -154.0840916808688 81.8105009241634 0.0
    vertex -154.0840916808688 81.8105009241634 3.9999999999999996
  endloop
endfacet
facet normal -1.0 0.0 0.0
  outer loop
    vertex -154.0840916808688 81.8105009241634 0.0
    vertex -154.0840916808688 87.4105009241634 3.9999999999999996
    vertex -154.0840916808688 87.4105009241634 0.0
  endloop
endfacet
facet normal 1.0 0.0 0.0
  outer loop
    vertex -148.48409168086883 87.4105009241634 0.0
    vertex -148.48409168086883 81.8105009241634 3.9999999999999996
    vertex -148.48409168086883 81.8105009241634 0.0
  endloop
endfacet
facet normal 1.0 0.0 0.0
  outer loop
    vertex -148.48409168086883 81.8105009241634 3.9999999999999996
    vertex -148.48409168086883 87.4105009241634 0.0
    vertex -148.48409168086883 87.4105009241634 3.9999999999999996
  endloop
endfacet
facet normal 1.0 0.0 0.0
  outer loop
    vertex -172.0641677966943 96.97684822390185 0.0
    vertex -172.0641677966943 86.97684822390184 3.9999999999999996
    vertex -172.0641677966943 86.97684822390184 0.0
  endloop
endfacet
facet normal 1.0 0.0 0.0
  outer loop
    vertex -172.0641677966943 86.97684822390184 3.9999999999999996
    vertex -172.0641677966943 96.97684822390185 0.0
    vertex -172.0641677966943 96.97684822390185 3.9999999999999996
  endloop
endfacet
facet normal -1.0 0.0 0.0
  outer loop
    vertex -182.0641677966943 96.97684822390185 3.9999999999999996
    vertex -182.0641677966943 86.97684822390184 0.0
    vertex -182.0641677966943 86.97684822390184 3.9999999999999996
  endloop
endfacet
facet normal -1.0 0.0 0.0
  outer loop
    vertex -182.0641677966943 86.97684822390184 0.0
    vertex -182.0641677966943 96.97684822390185 3.9999999999999996
    vertex -182.0641677966943 96.97684822390185 0.0
  endloop
endfacet
facet normal 0.0 0.0 1.0
  outer loop
    vertex -182.0641677966943 86.97684822390184 3.9999999999999996
    vertex -180.0641677966943 88.97684822390184 3.9999999999999996
    vertex -182.0641677966943 96.97684822390185 3.9999999999999996
  endloop
endfacet
facet normal 0.0 0.0 1.0
  outer loop
    vertex -180.0641677966943 88.97684822390184 3.9999999999999996
    vertex -182.0641677966943 86.97684822390184 3.9999999999999996
    vertex -172.0641677966943 86.97684822390184 3.9999999999999996
  endloop
endfacet
facet normal 0.0 0.0 1.0
  outer loop
    vertex -180.0641677966943 88.97684822390184 3.9999999999999996
    vertex -172.0641677966943 86.97684822390184 3.9999999999999996
    vertex -174.0641677966943 88.97684822390184 3.9999999999999996
  endloop
endfacet
facet normal 0.0 0.0 1.0
  outer loop
    vertex -174.0641677966943 88.97684822390184 3.9999999999999996
    vertex -172.0641677966943 86.97684822390184 3.9999999999999996
    vertex -174.0641677966943 94.97684822390185 3.9999999999999996
  endloop
endfacet
facet normal 0.0 0.0 1.0
  outer loop
    vertex -182.0641677966943 96.97684822390185 3.9999999999999996
    vertex -180.0641677966943 94.97684822390185 3.9999999999999996
    vertex -172.0641677966943 96.97684822390185 3.9999999999999996
  endloop
endfacet
facet normal 0.0 0.0 1.0
  outer loop
    vertex -180.0641677966943 94.97684822390185 3.9999999999999996
    vertex -182.0641677966943 96.97684822390185 3.9999999999999996
    vertex -180.0641677966943 88.97684822390184 3.9999999999999996
  endloop
endfacet
facet normal 0.0 0.0 1.0
  outer loop
    vertex -172.0641677966943 96.97684822390185 3.9999999999999996
    vertex -180.0641677966943 94.97684822390185 3.9999999999999996
    vertex -174.0641677966943 94.97684822390185 3.9999999999999996
  endloop
endfacet
facet normal 0.0 0.0 1.0
  outer loop
    vertex -172.0641677966943 96.97684822390185 3.9999999999999996
    vertex -174.0641677966943 94.97684822390185 3.9999999999999996
    vertex -172.0641677966943 86.97684822390184 3.9999999999999996
  endloop
endfacet
facet normal -0.0 -1.0 -0.0
  outer loop
    vertex -172.0641677966943 86.97684822390184 3.9999999999999996
    vertex -182.0641677966943 86.97684822390184 0.0
    vertex -172.0641677966943 86.97684822390184 0.0
  endloop
endfacet
facet normal -0.0 -1.0 -0.0
  outer loop
    vertex -182.0641677966943 86.97684822390184 0.0
    vertex -172.0641677966943 86.97684822390184 3.9999999999999996
    vertex -182.0641677966943 86.97684822390184 3.9999999999999996
  endloop
endfacet
facet normal 0.0 0.0 -1.0
  outer loop
    vertex -182.0641677966943 96.97684822390185 0.0
    vertex -180.0641677966943 94.97684822390185 1.4099832412739487e-15
    vertex -182.0641677966943 86.97684822390184 0.0
  endloop
endfacet
facet normal 0.0 0.0 -1.0
  outer loop
    vertex -180.0641677966943 94.97684822390185 1.4099832412739487e-15
    vertex -182.0641677966943 96.97684822390185 0.0
    vertex -172.0641677966943 96.97684822390185 0.0
  endloop
endfacet
facet normal 0.0 0.0 -1.0
  outer loop
    vertex -180.0641677966943 94.97684822390185 1.4099832412739487e-15
    vertex -172.0641677966943 96.97684822390185 0.0
    vertex -174.0641677966943 94.97684822390185 1.4099832412739487e-15
  endloop
endfacet
facet normal 0.0 0.0 -1.0
  outer loop
    vertex -174.0641677966943 94.97684822390185 1.4099832412739487e-15
    vertex -172.0641677966943 96.97684822390185 0.0
    vertex -174.0641677966943 88.97684822390184 1.4099832412739487e-15
  endloop
endfacet
facet normal 0.0 0.0 -1.0
  outer loop
    vertex -182.0641677966943 86.97684822390184 0.0
    vertex -180.0641677966943 88.97684822390184 1.4099832412739487e-15
    vertex -172.0641677966943 86.97684822390184 0.0
  endloop
endfacet
facet normal 0.0 0.0 -1.0
  outer loop
    vertex -180.0641677966943 88.97684822390184 1.4099832412739487e-15
    vertex -182.0641677966943 86.97684822390184 0.0
    vertex -180.0641677966943 94.97684822390185 1.4099832412739487e-15
  endloop
endfacet
facet normal 0.0 0.0 -1.0
  outer loop
    vertex -172.0641677966943 86.97684822390184 0.0
    vertex -180.0641677966943 88.97684822390184 1.4099832412739487e-15
    vertex -174.0641677966943 88.97684822390184 1.4099832412739487e-15
  endloop
endfacet
facet normal 0.0 0.0 -1.0
  outer loop
    vertex -172.0641677966943 86.97684822390184 0.0
    vertex -174.0641677966943 88.97684822390184 1.4099832412739487e-15
    vertex -172.0641677966943 96.97684822390185 0.0
  endloop
endfacet
facet normal -1.0 0.0 -0.0
  outer loop
    vertex -174.0641677966943 94.97684822390185 3.9999999999999996
    vertex -174.0641677966943 88.97684822390184 1.4099832412739487e-15
    vertex -174.0641677966943 88.97684822390184 3.9999999999999996
  endloop
endfacet
facet normal -1.0 0.0 -0.0
  outer loop
    vertex -174.0641677966943 88.97684822390184 1.4099832412739487e-15
    vertex -174.0641677966943 94.97684822390185 3.9999999999999996
    vertex -174.0641677966943 94.97684822390185 1.4099832412739487e-15
  endloop
endfacet
facet normal -0.0 1.0 0.0
  outer loop
    vertex -182.0641677966943 96.97684822390185 3.9999999999999996
    vertex -172.0641677966943 96.97684822390185 0.0
    vertex -182.0641677966943 96.97684822390185 0.0
  endloop
endfacet
facet normal -0.0 1.0 0.0
  outer loop
    vertex -172.0641677966943 96.97684822390185 0.0
    vertex -182.0641677966943 96.97684822390185 3.9999999999999996
    vertex -172.0641677966943 96.97684822390185 3.9999999999999996
  endloop
endfacet
facet normal -0.0 -1.0 -0.0
  outer loop
    vertex -174.0641677966943 94.97684822390185 3.9999999999999996
    vertex -180.0641677966943 94.97684822390185 1.4099832412739487e-15
    vertex -174.0641677966943 94.97684822390185 1.4099832412739487e-15
  endloop
endfacet
facet normal -0.0 -1.0 -0.0
  outer loop
    vertex -180.0641677966943 94.97684822390185 1.4099832412739487e-15
    vertex -174.0641677966943 94.97684822390185 3.9999999999999996
    vertex -180.0641677966943 94.97684822390185 3.9999999999999996
  endloop
endfacet
facet normal 1.0 0.0 0.0
  outer loop
    vertex -180.0641677966943 94.97684822390185 1.4099832412739487e-15
    vertex -180.0641677966943 88.97684822390184 3.9999999999999996
    vertex -180.0641677966943 88.97684822390184 1.4099832412739487e-15
  endloop
endfacet
facet normal 1.0 0.0 0.0
  outer loop
    vertex -180.0641677966943 88.97684822390184 3.9999999999999996
    vertex -180.0641677966943 94.97684822390185 1.4099832412739487e-15
    vertex -180.0641677966943 94.97684822390185 3.9999999999999996
  endloop
endfacet
facet normal -0.0 1.0 -0.0
  outer loop
    vertex -180.0641677966943 88.97684822390184 3.9999999999999996
    vertex -174.0641677966943 88.97684822390184 1.4099832412739487e-15
    vertex -180.0641677966943 88.97684822390184 1.4099832412739487e-15
  endloop
endfacet
facet normal -0.0 1.0 -0.0
  outer loop
    vertex -174.0641677966943 88.97684822390184 1.4099832412739487e-15
    vertex -180.0641677966943 88.97684822390184 3.9999999999999996
    vertex -174.0641677966943 88.97684822390184 3.9999999999999996
  endloop
endfacet
endsolid oledscreenmount
