solid Untitled-598fcd68
facet normal -0.039202795900576674 0.9820626196819294 -0.18443468170884741
  outer loop
    vertex -26.31210521273427 8.878504271094608 -3.1847335230782337
    vertex 4.631555851857365 9.63272882849497 -5.745993553346214
    vertex 3.814825851857365 8.87850882849497 -9.588403553346215
  endloop
endfacet
facet normal -0.039202795900576674 0.9820626196819294 -0.18443468170884741
  outer loop
    vertex 4.631555851857365 9.63272882849497 -5.745993553346214
    vertex -26.31210521273427 8.878504271094608 -3.1847335230782337
    vertex -25.49540521273427 9.632724271094608 0.6576774769217647
  endloop
endfacet
facet normal 0.20415977715580863 0.18912189476904262 0.9604955462211461
  outer loop
    vertex -3.5917099999999995 -6.40386 -1.14579
    vertex 5.103488219061977 -3.703492128960469 -3.525716099675435
    vertex -3.6998399999999996 -3.70349 -1.65451
  endloop
endfacet
facet normal 0.20415977715580863 0.18912189476904262 0.9604955462211461
  outer loop
    vertex 5.103488219061977 -3.703492128960469 -3.525716099675435
    vertex -3.5917099999999995 -6.40386 -1.14579
    vertex 5.211618219061977 -6.403862128960463 -3.016996099675435
  endloop
endfacet
facet normal 0.9781475798957753 -2.3655116314504208e-07 -0.20791178885282618
  outer loop
    vertex 3.814825851857365 8.87850882849497 -9.588403553346215
    vertex 5.103488219061977 -3.703492128960469 -3.525716099675435
    vertex 4.348278219061977 -4.400902128960469 -7.078706099675434
  endloop
endfacet
facet normal 0.9781475798957753 -2.3655116314504208e-07 -0.20791178885282618
  outer loop
    vertex 4.453918219061977 -7.1035721289604625 -6.581686099675433
    vertex 5.839040308134234 -20.61473221686547 -0.0652235019431955
    vertex 5.022310308134233 -21.36903221686547 -3.907633501943193
  endloop
endfacet
facet normal 0.9781475798957753 -2.3655116314504208e-07 -0.20791178885282618
  outer loop
    vertex 5.839040308134234 -20.61473221686547 -0.0652235019431955
    vertex 4.453918219061977 -7.1035721289604625 -6.581686099675433
    vertex 5.211618219061977 -6.403862128960463 -3.016996099675435
  endloop
endfacet
facet normal 0.9781475798957753 -2.3655116314504208e-07 -0.20791178885282618
  outer loop
    vertex 5.839040308134234 -20.61473221686547 -0.0652235019431955
    vertex 5.211618219061977 -6.403862128960463 -3.016996099675435
    vertex 4.631555851857365 9.63272882849497 -5.745993553346214
  endloop
endfacet
facet normal 0.9781475798957753 -2.3655116314504208e-07 -0.20791178885282618
  outer loop
    vertex 4.631555851857365 9.63272882849497 -5.745993553346214
    vertex 5.211618219061977 -6.403862128960463 -3.016996099675435
    vertex 5.103488219061977 -3.703492128960469 -3.525716099675435
  endloop
endfacet
facet normal 0.9781475798957753 -2.3655116314504208e-07 -0.20791178885282618
  outer loop
    vertex 4.631555851857365 9.63272882849497 -5.745993553346214
    vertex 5.103488219061977 -3.703492128960469 -3.525716099675435
    vertex 3.814825851857365 8.87850882849497 -9.588403553346215
  endloop
endfacet
facet normal 0.03920689878580618 -0.9820588986561124 0.18445362197024887
  outer loop
    vertex 5.839040308134234 -20.61473221686547 -0.0652235019431955
    vertex -25.104620756457408 -21.36903677426583 2.4960395283247836
    vertex 5.022310308134233 -21.36903221686547 -3.907633501943193
  endloop
endfacet
facet normal 0.03920689878580618 -0.9820588986561124 0.18445362197024887
  outer loop
    vertex -25.104620756457408 -21.36903677426583 2.4960395283247836
    vertex 5.839040308134234 -20.61473221686547 -0.0652235019431955
    vertex -24.287920756457407 -20.61473677426583 6.338446528324787
  endloop
endfacet
facet normal 0.20418193445034055 0.18856124663632878 0.9606010586664324
  outer loop
    vertex -24.287920756457407 -20.61473677426583 6.338446528324787
    vertex -16.8156 -11.776199999999998 3.0150799999999998
    vertex -17.3566 1.7762299999999998 0.4698709999999999
  endloop
endfacet
facet normal 0.20418193445034055 0.18856124663632878 0.9606010586664324
  outer loop
    vertex -16.8156 -11.776199999999998 3.0150799999999998
    vertex -24.287920756457407 -20.61473677426583 6.338446528324787
    vertex 5.839040308134234 -20.61473221686547 -0.0652235019431955
  endloop
endfacet
facet normal 0.20418193445034055 0.18856124663632878 0.9606010586664324
  outer loop
    vertex -17.3566 1.7762299999999998 0.4698709999999999
    vertex -16.8156 -11.776199999999998 3.0150799999999998
    vertex -17.013959726809684 -6.8071495149586205 2.081869349512841
  endloop
endfacet
facet normal 0.20418193445034055 0.18856124663632878 0.9606010586664324
  outer loop
    vertex -16.8156 -11.776199999999998 3.0150799999999998
    vertex 5.839040308134234 -20.61473221686547 -0.0652235019431955
    vertex -3.3171499999999994 -11.776199999999998 0.14589999999999997
  endloop
endfacet
facet normal 0.20418193445034055 0.18856124663632878 0.9606010586664324
  outer loop
    vertex -3.3171499999999994 -11.776199999999998 0.14589999999999997
    vertex 5.839040308134234 -20.61473221686547 -0.0652235019431955
    vertex 4.631555851857365 9.63272882849497 -5.745993553346214
  endloop
endfacet
facet normal 0.20418193445034055 0.18856124663632878 0.9606010586664324
  outer loop
    vertex -25.49540521273427 9.632724271094608 0.6576774769217647
    vertex -17.3566 1.7762299999999998 0.4698709999999999
    vertex 4.631555851857365 9.63272882849497 -5.745993553346214
  endloop
endfacet
facet normal 0.20418193445034055 0.18856124663632878 0.9606010586664324
  outer loop
    vertex -17.3566 1.7762299999999998 0.4698709999999999
    vertex -25.49540521273427 9.632724271094608 0.6576774769217647
    vertex -24.287920756457407 -20.61473677426583 6.338446528324787
  endloop
endfacet
facet normal 0.20418193445034055 0.18856124663632878 0.9606010586664324
  outer loop
    vertex 4.631555851857365 9.63272882849497 -5.745993553346214
    vertex -17.3566 1.7762299999999998 0.4698709999999999
    vertex -3.8581499999999997 1.7762299999999998 -2.39931
  endloop
endfacet
facet normal 0.20418193445034055 0.18856124663632878 0.9606010586664324
  outer loop
    vertex 4.631555851857365 9.63272882849497 -5.745993553346214
    vertex -3.8581499999999997 1.7762299999999998 -2.39931
    vertex -3.641554244939761 -3.649665580787401 -1.3803011605793614
  endloop
endfacet
facet normal 0.20418193445034055 0.18856124663632878 0.9606010586664324
  outer loop
    vertex 4.631555851857365 9.63272882849497 -5.745993553346214
    vertex -3.641554244939761 -3.649665580787401 -1.3803011605793614
    vertex -3.5337467607169337 -6.350334221777123 -0.8731027757207835
  endloop
endfacet
facet normal 0.20418193445034055 0.18856124663632878 0.9606010586664324
  outer loop
    vertex 4.631555851857365 9.63272882849497 -5.745993553346214
    vertex -3.5337467607169337 -6.350334221777123 -0.8731027757207835
    vertex -3.3171499999999994 -11.776199999999998 0.14589999999999997
  endloop
endfacet
facet normal -0.03920683817971176 0.9820588986561938 -0.18445363485205019
  outer loop
    vertex -17.6323 -12.530499999999998 -0.827327
    vertex -3.3171499999999994 -11.776199999999998 0.14589999999999997
    vertex -4.13388 -12.530499999999998 -3.69651
  endloop
endfacet
facet normal -0.03920683817971176 0.9820588986561938 -0.18445363485205019
  outer loop
    vertex -3.3171499999999994 -11.776199999999998 0.14589999999999997
    vertex -17.6323 -12.530499999999998 -0.827327
    vertex -16.8156 -11.776199999999998 3.0150799999999998
  endloop
endfacet
facet normal -0.9781485173394726 -9.16954543478718e-07 0.20790737847837626
  outer loop
    vertex -24.287920756457407 -20.61473677426583 6.338446528324787
    vertex -25.457482845529658 -12.530506686360825 0.8359569305925438
    vertex -25.104620756457408 -21.36903677426583 2.4960395283247836
  endloop
endfacet
facet normal -0.9781485173394726 -9.16954543478718e-07 0.20790737847837626
  outer loop
    vertex -25.457482845529658 -12.530506686360825 0.8359569305925438
    vertex -24.287920756457407 -20.61473677426583 6.338446528324787
    vertex -25.49540521273427 9.632724271094608 0.6576774769217647
  endloop
endfacet
facet normal -0.9781485173394726 -9.16954543478718e-07 0.20790737847837626
  outer loop
    vertex -25.457482845529658 -12.530506686360825 0.8359569305925438
    vertex -25.49540521273427 9.632724271094608 0.6576774769217647
    vertex -25.664082845529656 -7.095336686360826 -0.1360360694074559
  endloop
endfacet
facet normal -0.9781485173394726 -9.16954543478718e-07 0.20790737847837626
  outer loop
    vertex -25.664082845529656 -7.095336686360826 -0.1360360694074559
    vertex -25.49540521273427 9.632724271094608 0.6576774769217647
    vertex -26.31210521273427 8.878504271094608 -3.1847335230782337
  endloop
endfacet
facet normal -0.19820066858333318 -0.18690840707586936 -0.9621755257423049
  outer loop
    vertex -17.9513 -4.39884 -2.32779
    vertex -21.364461277349722 -7.09533 -1.1008958770812731
    vertex -26.31210521273427 8.878504271094608 -3.1847335230782337
  endloop
endfacet
facet normal -0.2042350702238294 -0.18997569257036595 -0.9603110289500362
  outer loop
    vertex 3.814825851857365 8.87850882849497 -9.588403553346215
    vertex -18.1733 1.02201 -3.37254
    vertex -26.31210521273427 8.878504271094608 -3.1847335230782337
  endloop
endfacet
facet normal -0.2042350702238294 -0.18997569257036595 -0.9603110289500362
  outer loop
    vertex -18.1733 1.02201 -3.37254
    vertex 3.814825851857365 8.87850882849497 -9.588403553346215
    vertex -4.67488 1.02201 -6.241719999999999
  endloop
endfacet
facet normal -0.2042350702238294 -0.18997569257036595 -0.9603110289500362
  outer loop
    vertex -17.9513 -4.39884 -2.32779
    vertex -26.31210521273427 8.878504271094608 -3.1847335230782337
    vertex -18.1733 1.02201 -3.37254
  endloop
endfacet
facet normal -0.19820066858333318 -0.18690840707586936 -0.9621755257423049
  outer loop
    vertex -17.9513 -4.39884 -2.32779
    vertex -21.364461277349722 -7.09533 -1.1008958770812731
    vertex -26.31210521273427 8.878504271094608 -3.1847335230782337
  endloop
endfacet
facet normal -0.20418164700988575 -0.18857421008578906 -0.9605985750118783
  outer loop
    vertex -23.501185810850714 -12.530504852451736 0.42014217363579126
    vertex -25.104620756457408 -21.36903677426583 2.4960395283247836
    vertex -25.457482845529658 -12.530506686360825 0.8359569305925438
  endloop
endfacet
facet normal -0.20418164700988575 -0.18857421008578906 -0.9605985750118783
  outer loop
    vertex -25.104620756457408 -21.36903677426583 2.4960395283247836
    vertex -23.501185810850714 -12.530504852451736 0.42014217363579126
    vertex 5.022310308134233 -21.36903221686547 -3.907633501943193
  endloop
endfacet
facet normal -0.20418164700988575 -0.18857421008578906 -0.9605985750118783
  outer loop
    vertex 5.022310308134233 -21.36903221686547 -3.907633501943193
    vertex -23.501185810850714 -12.530504852451736 0.42014217363579126
    vertex -17.6323 -12.530499999999998 -0.827327
  endloop
endfacet
facet normal -0.20418164700988575 -0.18857421008578906 -0.9605985750118783
  outer loop
    vertex 5.022310308134233 -21.36903221686547 -3.907633501943193
    vertex -17.6323 -12.530499999999998 -0.827327
    vertex -4.12996 -12.628699999999998 -3.6780599999999994
  endloop
endfacet
facet normal -0.20418164700988575 -0.18857421008578906 -0.9605985750118783
  outer loop
    vertex -4.12996 -12.628699999999998 -3.6780599999999994
    vertex -17.6323 -12.530499999999998 -0.827327
    vertex -4.13388 -12.530499999999998 -3.69651
  endloop
endfacet
facet normal -0.03920773485264103 0.9820624636497007 -0.18443446266358438
  outer loop
    vertex -17.9513 -4.39884 -2.32779
    vertex -17.538099999999996 -4.37863 -2.3079999999999994
    vertex -17.7423 -4.394659999999999 -2.3499699999999994
  endloop
endfacet
facet normal -0.03920773485264103 0.9820624636497007 -0.18443446266358438
  outer loop
    vertex -17.538099999999996 -4.37863 -2.3079999999999994
    vertex -17.9513 -4.39884 -2.32779
    vertex -17.1983 -3.70349 1.21468
  endloop
endfacet
facet normal -0.03920773485264103 0.9820624636497007 -0.18443446266358438
  outer loop
    vertex -17.538099999999996 -4.37863 -2.3079999999999994
    vertex -17.1983 -3.70349 1.21468
    vertex -17.3476 -4.355459999999999 -2.22512
  endloop
endfacet
facet normal -0.03920773485264103 0.9820624636497007 -0.18443446266358438
  outer loop
    vertex -17.3476 -4.355459999999999 -2.22512
    vertex -17.1983 -3.70349 1.21468
    vertex -17.179 -4.326159999999999 -2.10497
  endloop
endfacet
facet normal -0.03920773485264103 0.9820624636497007 -0.18443446266358438
  outer loop
    vertex -17.179 -4.326159999999999 -2.10497
    vertex -17.1983 -3.70349 1.21468
    vertex -17.0398 -4.29202 -1.9527899999999998
  endloop
endfacet
facet normal -0.03920773485264103 0.9820624636497007 -0.18443446266358438
  outer loop
    vertex -17.0398 -4.29202 -1.9527899999999998
    vertex -17.1983 -3.70349 1.21468
    vertex -16.935999999999996 -4.25453 -1.7752299999999999
  endloop
endfacet
facet normal -0.03920773485264103 0.9820624636497007 -0.18443446266358438
  outer loop
    vertex -16.935999999999996 -4.25453 -1.7752299999999999
    vertex -17.1983 -3.70349 1.21468
    vertex -16.8722 -4.21533 -1.58005
  endloop
endfacet
facet normal -0.03920773485264103 0.9820624636497007 -0.18443446266358438
  outer loop
    vertex -16.8722 -4.21533 -1.58005
    vertex -17.1983 -3.70349 1.21468
    vertex -16.851099999999995 -4.17613 -1.3757899999999998
  endloop
endfacet
facet normal -0.03920773485264103 0.9820624636497007 -0.18443446266358438
  outer loop
    vertex -16.851099999999995 -4.17613 -1.3757899999999998
    vertex -17.1983 -3.70349 1.21468
    vertex -16.8737 -4.13864 -1.17136
  endloop
endfacet
facet normal 0.9903993253164607 0.06277418860501965 0.12316077970555903
  outer loop
    vertex -16.8737 -4.13864 -1.17136
    vertex -17.0901 -6.40386 1.7233899999999998
    vertex -16.765899999999995 -6.839309999999999 -0.6641649999999999
  endloop
endfacet
facet normal 0.9903993253164607 0.06277418860501965 0.12316077970555903
  outer loop
    vertex -17.0901 -6.40386 1.7233899999999998
    vertex -16.8737 -4.13864 -1.17136
    vertex -17.1983 -3.70349 1.21468
  endloop
endfacet
facet normal -0.20418197607376226 -0.18855545022892317 -0.9606021876071185
  outer loop
    vertex -17.6323 -12.530499999999998 -0.827327
    vertex -23.501185810850714 -12.530504852451736 0.42014217363579126
    vertex -21.364461277349722 -7.09533 -1.1008958770812731
  endloop
endfacet
facet normal 0.039200622692172074 -0.9820625447010974 0.1844355428754212
  outer loop
    vertex -17.4303 -7.0793 -1.8007999999999997
    vertex -17.845699999999997 -7.101569999999999 -1.8311199999999999
    vertex -17.634499999999996 -7.09533 -1.84277
  endloop
endfacet
facet normal 0.039200622692172074 -0.9820625447010974 0.1844355428754212
  outer loop
    vertex -17.845699999999997 -7.101569999999999 -1.8311199999999999
    vertex -17.4303 -7.0793 -1.8007999999999997
    vertex -17.0901 -6.40386 1.7233899999999998
  endloop
endfacet
facet normal 0.039200622692172074 -0.9820625447010974 0.1844355428754212
  outer loop
    vertex -17.0901 -6.40386 1.7233899999999998
    vertex -17.4303 -7.0793 -1.8007999999999997
    vertex -17.239799999999995 -7.05613 -1.71793
  endloop
endfacet
facet normal 0.039200622692172074 -0.9820625447010974 0.1844355428754212
  outer loop
    vertex -17.0901 -6.40386 1.7233899999999998
    vertex -17.239799999999995 -7.05613 -1.71793
    vertex -17.0712 -7.0268299999999995 -1.59777
  endloop
endfacet
facet normal 0.039200622692172074 -0.9820625447010974 0.1844355428754212
  outer loop
    vertex -17.0901 -6.40386 1.7233899999999998
    vertex -17.0712 -7.0268299999999995 -1.59777
    vertex -16.932 -6.992699999999999 -1.4455899999999997
  endloop
endfacet
facet normal 0.039200622692172074 -0.9820625447010974 0.1844355428754212
  outer loop
    vertex -17.0901 -6.40386 1.7233899999999998
    vertex -16.932 -6.992699999999999 -1.4455899999999997
    vertex -16.8282 -6.95521 -1.2680299999999998
  endloop
endfacet
facet normal 0.039200622692172074 -0.9820625447010974 0.1844355428754212
  outer loop
    vertex -17.0901 -6.40386 1.7233899999999998
    vertex -16.8282 -6.95521 -1.2680299999999998
    vertex -16.7644 -6.9159999999999995 -1.0728499999999999
  endloop
endfacet
facet normal 0.039200622692172074 -0.9820625447010974 0.1844355428754212
  outer loop
    vertex -17.0901 -6.40386 1.7233899999999998
    vertex -16.7644 -6.9159999999999995 -1.0728499999999999
    vertex -16.7433 -6.8768 -0.868588
  endloop
endfacet
facet normal 0.039200622692172074 -0.9820625447010974 0.1844355428754212
  outer loop
    vertex -17.0901 -6.40386 1.7233899999999998
    vertex -16.7433 -6.8768 -0.868588
    vertex -16.765899999999995 -6.839309999999999 -0.6641649999999999
  endloop
endfacet
facet normal -0.03919987216967503 0.9820625286456782 -0.1844357878827686
  outer loop
    vertex -4.652739999999999 -4.394659999999999 -5.13224
    vertex -3.6998399999999996 -3.70349 -1.65451
    vertex -4.455049999999999 -4.4009 -5.2075
  endloop
endfacet
facet normal -0.03919987216967503 0.9820625286456782 -0.1844357878827686
  outer loop
    vertex -3.6998399999999996 -3.70349 -1.65451
    vertex -4.652739999999999 -4.394659999999999 -5.13224
    vertex -4.822189999999999 -4.37863 -5.01085
  endloop
endfacet
facet normal -0.03919987216967503 0.9820625286456782 -0.1844357878827686
  outer loop
    vertex -3.6998399999999996 -3.70349 -1.65451
    vertex -4.822189999999999 -4.37863 -5.01085
    vertex -4.96254 -4.355459999999999 -4.857649999999999
  endloop
endfacet
facet normal -0.03919987216967503 0.9820625286456782 -0.1844357878827686
  outer loop
    vertex -3.6998399999999996 -3.70349 -1.65451
    vertex -4.96254 -4.355459999999999 -4.857649999999999
    vertex -5.067639999999999 -4.326159999999999 -4.679329999999999
  endloop
endfacet
facet normal -0.03919987216967503 0.9820625286456782 -0.1844357878827686
  outer loop
    vertex -3.6998399999999996 -3.70349 -1.65451
    vertex -5.067639999999999 -4.326159999999999 -4.679329999999999
    vertex -5.1329199999999995 -4.29202 -4.48368
  endloop
endfacet
facet normal -0.03919987216967503 0.9820625286456782 -0.1844357878827686
  outer loop
    vertex -3.6998399999999996 -3.70349 -1.65451
    vertex -5.1329199999999995 -4.29202 -4.48368
    vertex -5.155509999999999 -4.25453 -4.279249999999999
  endloop
endfacet
facet normal -0.03919987216967503 0.9820625286456782 -0.1844357878827686
  outer loop
    vertex -3.6998399999999996 -3.70349 -1.65451
    vertex -5.155509999999999 -4.25453 -4.279249999999999
    vertex -5.13444 -4.21533 -4.07499
  endloop
endfacet
facet normal -0.03919987216967503 0.9820625286456782 -0.1844357878827686
  outer loop
    vertex -3.6998399999999996 -3.70349 -1.65451
    vertex -5.13444 -4.21533 -4.07499
    vertex -5.07061 -4.17613 -3.8798099999999995
  endloop
endfacet
facet normal -0.03919987216967503 0.9820625286456782 -0.1844357878827686
  outer loop
    vertex -3.6998399999999996 -3.70349 -1.65451
    vertex -5.07061 -4.17613 -3.8798099999999995
    vertex -4.96682 -4.13864 -3.7022499999999994
  endloop
endfacet
facet normal -0.3548380797593602 -0.18249522368760548 -0.9169435263329475
  outer loop
    vertex -4.34941 -7.1035699999999995 -4.71048
    vertex -4.652739999999999 -4.394659999999999 -5.13224
    vertex -4.455049999999999 -4.4009 -5.2075
  endloop
endfacet
facet normal -0.04878102595343987 -0.1823678008080408 -0.9820195500779852
  outer loop
    vertex -17.634499999999996 -7.09533 -1.84277
    vertex -17.845699999999997 -7.101569999999999 -1.8311199999999999
    vertex -17.9513 -4.39884 -2.32779
  endloop
endfacet
facet normal 0.03920279590057667 -0.9820626196819294 0.18443468170884741
  outer loop
    vertex -3.8581499999999997 1.7762299999999998 -2.39931
    vertex -18.1733 1.02201 -3.37254
    vertex -4.67488 1.02201 -6.241719999999999
  endloop
endfacet
facet normal 0.03920279590057667 -0.9820626196819294 0.18443468170884741
  outer loop
    vertex -18.1733 1.02201 -3.37254
    vertex -3.8581499999999997 1.7762299999999998 -2.39931
    vertex -17.3566 1.7762299999999998 0.4698709999999999
  endloop
endfacet
facet normal -0.9781473406481186 -7.753841720547943e-07 0.2079129144195047
  outer loop
    vertex -4.13388 -12.530499999999998 -3.69651
    vertex -3.5917099999999995 -6.40386 -1.14579
    vertex -4.34941 -7.1035699999999995 -4.71048
  endloop
endfacet
facet normal -0.9781473406481186 -7.753841720547943e-07 0.2079129144195047
  outer loop
    vertex -3.5917099999999995 -6.40386 -1.14579
    vertex -4.13388 -12.530499999999998 -3.69651
    vertex -3.5337467607169337 -6.350334221777123 -0.8731027757207835
  endloop
endfacet
facet normal -0.978147582424078 2.440821870695444e-07 0.20791177695809418
  outer loop
    vertex -3.8581499999999997 1.7762299999999998 -2.39931
    vertex -4.67488 1.02201 -6.241719999999999
    vertex -3.641554244939761 -3.649665580787401 -1.3803011605793614
  endloop
endfacet
facet normal -0.9781475664982574 -1.548568377734352e-07 0.2079118518832283
  outer loop
    vertex -3.5337467607169337 -6.350334221777123 -0.8731027757207835
    vertex -4.13388 -12.530499999999998 -3.69651
    vertex -3.3171499999999994 -11.776199999999998 0.14589999999999997
  endloop
endfacet
facet normal -0.9781476469984083 7.439333298913708e-09 0.20791147315979844
  outer loop
    vertex -3.6998399999999996 -3.70349 -1.65451
    vertex -4.67488 1.02201 -6.241719999999999
    vertex -4.455049999999999 -4.4009 -5.2075
  endloop
endfacet
facet normal -0.9781476469984083 7.439333298913708e-09 0.20791147315979844
  outer loop
    vertex -4.67488 1.02201 -6.241719999999999
    vertex -3.6998399999999996 -3.70349 -1.65451
    vertex -3.641554244939761 -3.649665580787401 -1.3803011605793614
  endloop
endfacet
facet normal -0.9781466913137982 1.3182549537612843e-06 0.20791596925231978
  outer loop
    vertex -3.5337467607169337 -6.350334221777123 -0.8731027757207835
    vertex -3.6998399999999996 -3.70349 -1.65451
    vertex -3.5917099999999995 -6.40386 -1.14579
  endloop
endfacet
facet normal -0.9781466913137982 1.3182549537612843e-06 0.20791596925231978
  outer loop
    vertex -3.6998399999999996 -3.70349 -1.65451
    vertex -3.5337467607169337 -6.350334221777123 -0.8731027757207835
    vertex -3.641554244939761 -3.649665580787401 -1.3803011605793614
  endloop
endfacet
facet normal 0.978147628459894 -1.8242586542759458e-06 -0.20791156036872388
  outer loop
    vertex 4.348278219061977 -4.400902128960469 -7.078706099675434
    vertex 5.211618219061977 -6.403862128960463 -3.016996099675435
    vertex 4.453918219061977 -7.1035721289604625 -6.581686099675433
  endloop
endfacet
facet normal 0.978147628459894 -1.8242586542759458e-06 -0.20791156036872388
  outer loop
    vertex 5.211618219061977 -6.403862128960463 -3.016996099675435
    vertex 4.348278219061977 -4.400902128960469 -7.078706099675434
    vertex 5.103488219061977 -3.703492128960469 -3.525716099675435
  endloop
endfacet
facet normal -0.1999738832788568 -0.185738015300364 -0.9620352569831606
  outer loop
    vertex -17.6323 -12.530499999999998 -0.827327
    vertex -21.364461277349722 -7.09533 -1.1008958770812731
    vertex -17.845699999999997 -7.101569999999999 -1.8311199999999999
  endloop
endfacet
facet normal -0.1999738832788568 -0.185738015300364 -0.9620352569831606
  outer loop
    vertex -17.6323 -12.530499999999998 -0.827327
    vertex -21.364461277349722 -7.09533 -1.1008958770812731
    vertex -17.845699999999997 -7.101569999999999 -1.8311199999999999
  endloop
endfacet
facet normal -0.2040691920540513 -0.19137021985608435 -0.9600693744759494
  outer loop
    vertex 4.348278219061977 -4.400902128960469 -7.078706099675434
    vertex -4.455049999999999 -4.4009 -5.2075
    vertex -4.67488 1.02201 -6.241719999999999
  endloop
endfacet
facet normal -0.20311783902314898 -0.1897051497929447 -0.9606014259892615
  outer loop
    vertex 4.348278219061977 -4.400902128960469 -7.078706099675434
    vertex -4.67488 1.02201 -6.241719999999999
    vertex 3.814825851857365 8.87850882849497 -9.588403553346215
  endloop
endfacet
facet normal -0.20433194307282354 -0.18477050467073752 -0.961305527729767
  outer loop
    vertex 4.348278219061977 -4.400902128960469 -7.078706099675434
    vertex -4.34941 -7.1035699999999995 -4.71048
    vertex -4.455049999999999 -4.4009 -5.2075
  endloop
endfacet
facet normal -0.20383778150750625 -0.18821238041631014 -0.9607425558848347
  outer loop
    vertex 4.453918219061977 -7.1035721289604625 -6.581686099675433
    vertex -4.12996 -12.628699999999998 -3.6780599999999994
    vertex -4.13388 -12.530499999999998 -3.69651
  endloop
endfacet
facet normal -0.20383778150750625 -0.18821238041631014 -0.9607425558848347
  outer loop
    vertex -4.12996 -12.628699999999998 -3.6780599999999994
    vertex 4.453918219061977 -7.1035721289604625 -6.581686099675433
    vertex 5.022310308134233 -21.36903221686547 -3.907633501943193
  endloop
endfacet
facet normal -0.2042195695195034 -0.1876225315488581 -0.9607768487429672
  outer loop
    vertex 4.453918219061977 -7.1035721289604625 -6.581686099675433
    vertex -4.13388 -12.530499999999998 -3.69651
    vertex -4.34941 -7.1035699999999995 -4.71048
  endloop
endfacet
facet normal -0.20433194307282354 -0.18477050467073752 -0.961305527729767
  outer loop
    vertex 4.348278219061977 -4.400902128960469 -7.078706099675434
    vertex -4.34941 -7.1035699999999995 -4.71048
    vertex -4.455049999999999 -4.4009 -5.2075
  endloop
endfacet
facet normal -0.2042195695195034 -0.1876225315488581 -0.9607768487429672
  outer loop
    vertex 4.453918219061977 -7.1035721289604625 -6.581686099675433
    vertex -4.13388 -12.530499999999998 -3.69651
    vertex -4.34941 -7.1035699999999995 -4.71048
  endloop
endfacet
facet normal 0.9781468423044312 -1.20851249234123e-06 -0.20791525891191806
  outer loop
    vertex -18.1733 1.02201 -3.37254
    vertex -17.1983 -3.70349 1.21468
    vertex -17.9513 -4.39884 -2.32779
  endloop
endfacet
facet normal 0.9781468423044312 -1.20851249234123e-06 -0.20791525891191806
  outer loop
    vertex -17.0901 -6.40386 1.7233899999999998
    vertex -17.3566 1.7762299999999998 0.4698709999999999
    vertex -17.013959726809684 -6.8071495149586205 2.081869349512841
  endloop
endfacet
facet normal 0.9781468423044312 -1.20851249234123e-06 -0.20791525891191806
  outer loop
    vertex -17.3566 1.7762299999999998 0.4698709999999999
    vertex -17.0901 -6.40386 1.7233899999999998
    vertex -17.1983 -3.70349 1.21468
  endloop
endfacet
facet normal 0.9781468423044312 -1.20851249234123e-06 -0.20791525891191806
  outer loop
    vertex -17.3566 1.7762299999999998 0.4698709999999999
    vertex -17.1983 -3.70349 1.21468
    vertex -18.1733 1.02201 -3.37254
  endloop
endfacet
facet normal 0.9781472957203815 -7.166820971164771e-07 -0.2079131257866884
  outer loop
    vertex -17.845699999999997 -7.101569999999999 -1.8311199999999999
    vertex -16.8156 -11.776199999999998 3.0150799999999998
    vertex -17.6323 -12.530499999999998 -0.827327
  endloop
endfacet
facet normal 0.9781472957203815 -7.166820971164771e-07 -0.2079131257866884
  outer loop
    vertex -16.8156 -11.776199999999998 3.0150799999999998
    vertex -17.845699999999997 -7.101569999999999 -1.8311199999999999
    vertex -17.013959726809684 -6.8071495149586205 2.081869349512841
  endloop
endfacet
facet normal 0.9781472957203815 -7.166820971164771e-07 -0.2079131257866884
  outer loop
    vertex -17.013959726809684 -6.8071495149586205 2.081869349512841
    vertex -17.845699999999997 -7.101569999999999 -1.8311199999999999
    vertex -17.0901 -6.40386 1.7233899999999998
  endloop
endfacet
facet normal -0.2000140055020722 -0.1846415325458084 -0.9622379654026089
  outer loop
    vertex -17.845699999999997 -7.101569999999999 -1.8311199999999999
    vertex -21.364461277349722 -7.09533 -1.1008958770812731
    vertex -17.9513 -4.39884 -2.32779
  endloop
endfacet
facet normal -0.20433194307282354 -0.18477050467073752 -0.961305527729767
  outer loop
    vertex 4.348278219061977 -4.400902128960469 -7.078706099675434
    vertex -4.34941 -7.1035699999999995 -4.71048
    vertex -4.455049999999999 -4.4009 -5.2075
  endloop
endfacet
facet normal -0.2043319430728232 -0.18477050467073827 -0.9613055277297667
  outer loop
    vertex 4.453918219061977 -7.1035721289604625 -6.581686099675433
    vertex -4.34941 -7.1035699999999995 -4.71048
    vertex 4.348278219061977 -4.400902128960469 -7.078706099675434
  endloop
endfacet
facet normal -0.20418030396495207 -0.18855541168195306 -0.9606025505890712
  outer loop
    vertex -21.364461277349722 -7.09533 -1.1008958770812731
    vertex -25.457482845529658 -12.530506686360825 0.8359569305925438
    vertex -26.31210521273427 8.878504271094608 -3.1847335230782337
  endloop
endfacet
facet normal -0.20418030396495207 -0.18855541168195306 -0.9606025505890712
  outer loop
    vertex -25.457482845529658 -12.530506686360825 0.8359569305925438
    vertex -21.364461277349722 -7.09533 -1.1008958770812731
    vertex -23.501185810850714 -12.530504852451736 0.42014217363579126
  endloop
endfacet
facet normal -0.9781351932107649 1.1537173915451339e-05 0.20797005474210273
  outer loop
    vertex -26.31210521273427 8.878504271094608 -3.1847335230782337
    vertex -25.457482845529658 -12.530506686360825 0.8359569305925438
    vertex -25.664082845529656 -7.095336686360826 -0.1360360694074559
  endloop
endfacet
facet normal -0.9781351932108838 1.1537173824236763e-05 0.20797005474154406
  outer loop
    vertex -26.31210521273427 8.878504271094608 -3.1847335230782337
    vertex -25.457482845529658 -12.530506686360825 0.8359569305925438
    vertex -25.664082845529656 -7.095336686360826 -0.1360360694074559
  endloop
endfacet
facet normal -0.9781351932108838 1.1537173824236763e-05 0.20797005474154406
  outer loop
    vertex -26.31210521273427 8.878504271094608 -3.1847335230782337
    vertex -25.457482845529658 -12.530506686360825 0.8359569305925438
    vertex -25.664082845529656 -7.095336686360826 -0.1360360694074559
  endloop
endfacet
facet normal 0.039202642636331254 -0.9820623661777146 0.18443606411913213
  outer loop
    vertex -3.5917099999999995 -6.40386 -1.14579
    vertex -4.54493 -7.09533 -4.62504
    vertex -4.34941 -7.1035699999999995 -4.71048
  endloop
endfacet
facet normal 0.039202642636331254 -0.9820623661777146 0.18443606411913213
  outer loop
    vertex -4.54493 -7.09533 -4.62504
    vertex -3.5917099999999995 -6.40386 -1.14579
    vertex -4.71438 -7.0793 -4.5036499999999995
  endloop
endfacet
facet normal 0.039202642636331254 -0.9820623661777146 0.18443606411913213
  outer loop
    vertex -4.71438 -7.0793 -4.5036499999999995
    vertex -3.5917099999999995 -6.40386 -1.14579
    vertex -4.854729999999999 -7.05613 -4.35045
  endloop
endfacet
facet normal 0.039202642636331254 -0.9820623661777146 0.18443606411913213
  outer loop
    vertex -4.854729999999999 -7.05613 -4.35045
    vertex -3.5917099999999995 -6.40386 -1.14579
    vertex -4.95984 -7.0268299999999995 -4.17213
  endloop
endfacet
facet normal 0.039202642636331254 -0.9820623661777146 0.18443606411913213
  outer loop
    vertex -4.95984 -7.0268299999999995 -4.17213
    vertex -3.5917099999999995 -6.40386 -1.14579
    vertex -5.02511 -6.992699999999999 -3.97648
  endloop
endfacet
facet normal 0.039202642636331254 -0.9820623661777146 0.18443606411913213
  outer loop
    vertex -5.02511 -6.992699999999999 -3.97648
    vertex -3.5917099999999995 -6.40386 -1.14579
    vertex -5.0477099999999995 -6.95521 -3.7720599999999997
  endloop
endfacet
facet normal 0.039202642636331254 -0.9820623661777146 0.18443606411913213
  outer loop
    vertex -5.0477099999999995 -6.95521 -3.7720599999999997
    vertex -3.5917099999999995 -6.40386 -1.14579
    vertex -5.02663 -6.9159999999999995 -3.5677899999999996
  endloop
endfacet
facet normal 0.039202642636331254 -0.9820623661777146 0.18443606411913213
  outer loop
    vertex -5.02663 -6.9159999999999995 -3.5677899999999996
    vertex -3.5917099999999995 -6.40386 -1.14579
    vertex -4.9628 -6.8768 -3.37262
  endloop
endfacet
facet normal 0.039202642636331254 -0.9820623661777146 0.18443606411913213
  outer loop
    vertex -4.9628 -6.8768 -3.37262
    vertex -3.5917099999999995 -6.40386 -1.14579
    vertex -4.85902 -6.839309999999999 -3.19506
  endloop
endfacet
facet normal -0.8671818034941604 0.058265223473259055 0.494571413874909
  outer loop
    vertex -4.85902 -6.839309999999999 -3.19506
    vertex -5.07061 -4.17613 -3.8798099999999995
    vertex -4.9628 -6.8768 -3.37262
  endloop
endfacet
facet normal -0.8671818034941604 0.058265223473259055 0.494571413874909
  outer loop
    vertex -5.07061 -4.17613 -3.8798099999999995
    vertex -4.85902 -6.839309999999999 -3.19506
    vertex -4.96682 -4.13864 -3.7022499999999994
  endloop
endfacet
facet normal -0.854681972644384 0.06276413404093537 0.5153439522443201
  outer loop
    vertex -3.5917099999999995 -6.40386 -1.14579
    vertex -4.96682 -4.13864 -3.7022499999999994
    vertex -4.85902 -6.839309999999999 -3.19506
  endloop
endfacet
facet normal -0.854681972644384 0.06276413404093537 0.5153439522443201
  outer loop
    vertex -4.96682 -4.13864 -3.7022499999999994
    vertex -3.5917099999999995 -6.40386 -1.14579
    vertex -3.6998399999999996 -3.70349 -1.65451
  endloop
endfacet
facet normal -0.9491955200139106 -0.09427509210276727 -0.3002333622276787
  outer loop
    vertex -5.02511 -6.992699999999999 -3.97648
    vertex -5.067639999999999 -4.326159999999999 -4.679329999999999
    vertex -4.95984 -7.0268299999999995 -4.17213
  endloop
endfacet
facet normal -0.9491955200139106 -0.09427509210276727 -0.3002333622276787
  outer loop
    vertex -5.067639999999999 -4.326159999999999 -4.679329999999999
    vertex -5.02511 -6.992699999999999 -3.97648
    vertex -5.1329199999999995 -4.29202 -4.48368
  endloop
endfacet
facet normal -0.5843750881481129 -0.17225584004317596 -0.7929903416328001
  outer loop
    vertex -4.652739999999999 -4.394659999999999 -5.13224
    vertex -4.71438 -7.0793 -4.5036499999999995
    vertex -4.822189999999999 -4.37863 -5.01085
  endloop
endfacet
facet normal -0.5843750881481129 -0.17225584004317596 -0.7929903416328001
  outer loop
    vertex -4.71438 -7.0793 -4.5036499999999995
    vertex -4.652739999999999 -4.394659999999999 -5.13224
    vertex -4.54493 -7.09533 -4.62504
  endloop
endfacet
facet normal -0.994133113322921 -0.019710278086554383 0.10635251728392316
  outer loop
    vertex -5.02663 -6.9159999999999995 -3.5677899999999996
    vertex -5.155509999999999 -4.25453 -4.279249999999999
    vertex -5.0477099999999995 -6.95521 -3.7720599999999997
  endloop
endfacet
facet normal -0.994133113322921 -0.019710278086554383 0.10635251728392316
  outer loop
    vertex -5.155509999999999 -4.25453 -4.279249999999999
    vertex -5.02663 -6.9159999999999995 -3.5677899999999996
    vertex -5.13444 -4.21533 -4.07499
  endloop
endfacet
facet normal -0.7401074986146466 -0.1525493786790933 -0.6549576914267009
  outer loop
    vertex -4.854729999999999 -7.05613 -4.35045
    vertex -4.822189999999999 -4.37863 -5.01085
    vertex -4.71438 -7.0793 -4.5036499999999995
  endloop
endfacet
facet normal -0.7401074986146466 -0.1525493786790933 -0.6549576914267009
  outer loop
    vertex -4.822189999999999 -4.37863 -5.01085
    vertex -4.854729999999999 -7.05613 -4.35045
    vertex -4.96254 -4.355459999999999 -4.857649999999999
  endloop
endfacet
facet normal -0.9933690355895409 -0.05826634655084125 -0.09911100842753394
  outer loop
    vertex -5.0477099999999995 -6.95521 -3.7720599999999997
    vertex -5.1329199999999995 -4.29202 -4.48368
    vertex -5.02511 -6.992699999999999 -3.97648
  endloop
endfacet
facet normal -0.9933690355895409 -0.05826634655084125 -0.09911100842753394
  outer loop
    vertex -5.1329199999999995 -4.29202 -4.48368
    vertex -5.0477099999999995 -6.95521 -3.7720599999999997
    vertex -5.155509999999999 -4.25453 -4.279249999999999
  endloop
endfacet
facet normal -0.4000670235742017 -0.18456509505669813 -0.8977093640678988
  outer loop
    vertex -4.34941 -7.1035699999999995 -4.71048
    vertex -4.54493 -7.09533 -4.62504
    vertex -4.652739999999999 -4.394659999999999 -5.13224
  endloop
endfacet
facet normal -0.951440804709568 0.0197119478113627 0.3071999906365424
  outer loop
    vertex -4.9628 -6.8768 -3.37262
    vertex -5.13444 -4.21533 -4.07499
    vertex -5.02663 -6.9159999999999995 -3.5677899999999996
  endloop
endfacet
facet normal -0.951440804709568 0.0197119478113627 0.3071999906365424
  outer loop
    vertex -5.13444 -4.21533 -4.07499
    vertex -4.9628 -6.8768 -3.37262
    vertex -5.07061 -4.17613 -3.8798099999999995
  endloop
endfacet
facet normal -0.8635345175977578 -0.12616676202790592 -0.48825207124660686
  outer loop
    vertex -4.95984 -7.0268299999999995 -4.17213
    vertex -4.96254 -4.355459999999999 -4.857649999999999
    vertex -4.854729999999999 -7.05613 -4.35045
  endloop
endfacet
facet normal -0.8635345175977578 -0.12616676202790592 -0.48825207124660686
  outer loop
    vertex -4.96254 -4.355459999999999 -4.857649999999999
    vertex -4.95984 -7.0268299999999995 -4.17213
    vertex -5.067639999999999 -4.326159999999999 -4.679329999999999
  endloop
endfacet
facet normal -0.09995091108099435 -0.18750633436853217 -0.9771648734710819
  outer loop
    vertex -17.634499999999996 -7.09533 -1.84277
    vertex -17.9513 -4.39884 -2.32779
    vertex -17.7423 -4.394659999999999 -2.3499699999999994
  endloop
endfacet
facet normal 0.9941210425064142 0.019685723581732876 -0.10646983203247876
  outer loop
    vertex -16.8722 -4.21533 -1.58005
    vertex -16.7433 -6.8768 -0.868588
    vertex -16.7644 -6.9159999999999995 -1.0728499999999999
  endloop
endfacet
facet normal 0.9941210425064142 0.019685723581732876 -0.10646983203247876
  outer loop
    vertex -16.7433 -6.8768 -0.868588
    vertex -16.8722 -4.21533 -1.58005
    vertex -16.851099999999995 -4.17613 -1.3757899999999998
  endloop
endfacet
facet normal 0.9933666019267374 0.0582690377941171 0.09913381567898286
  outer loop
    vertex -16.851099999999995 -4.17613 -1.3757899999999998
    vertex -16.765899999999995 -6.839309999999999 -0.6641649999999999
    vertex -16.7433 -6.8768 -0.868588
  endloop
endfacet
facet normal 0.9933666019267374 0.0582690377941171 0.09913381567898286
  outer loop
    vertex -16.765899999999995 -6.839309999999999 -0.6641649999999999
    vertex -16.851099999999995 -4.17613 -1.3757899999999998
    vertex -16.8737 -4.13864 -1.17136
  endloop
endfacet
facet normal 0.7450290859265704 -0.09427580961115423 -0.6603360756808465
  outer loop
    vertex -17.179 -4.326159999999999 -2.10497
    vertex -16.932 -6.992699999999999 -1.4455899999999997
    vertex -17.0712 -7.0268299999999995 -1.59777
  endloop
endfacet
facet normal 0.7450290859265704 -0.09427580961115423 -0.6603360756808465
  outer loop
    vertex -16.932 -6.992699999999999 -1.4455899999999997
    vertex -17.179 -4.326159999999999 -2.10497
    vertex -17.0398 -4.29202 -1.9527899999999998
  endloop
endfacet
facet normal 0.59017353830684 -0.12618821361292792 -0.7973529516014618
  outer loop
    vertex -17.179 -4.326159999999999 -2.10497
    vertex -17.239799999999995 -7.05613 -1.71793
    vertex -17.3476 -4.355459999999999 -2.22512
  endloop
endfacet
facet normal 0.59017353830684 -0.12618821361292792 -0.7973529516014618
  outer loop
    vertex -17.239799999999995 -7.05613 -1.71793
    vertex -17.179 -4.326159999999999 -2.10497
    vertex -17.0712 -7.0268299999999995 -1.59777
  endloop
endfacet
facet normal 0.8671510374003034 -0.05827948740042589 -0.4946236748113879
  outer loop
    vertex -17.0398 -4.29202 -1.9527899999999998
    vertex -16.8282 -6.95521 -1.2680299999999998
    vertex -16.932 -6.992699999999999 -1.4455899999999997
  endloop
endfacet
facet normal 0.8671510374003034 -0.05827948740042589 -0.4946236748113879
  outer loop
    vertex -16.8282 -6.95521 -1.2680299999999998
    vertex -17.0398 -4.29202 -1.9527899999999998
    vertex -16.935999999999996 -4.25453 -1.7752299999999999
  endloop
endfacet
facet normal 0.40979769892204687 -0.15254004169100993 -0.8993316305118487
  outer loop
    vertex -17.3476 -4.355459999999999 -2.22512
    vertex -17.4303 -7.0793 -1.8007999999999997
    vertex -17.538099999999996 -4.37863 -2.3079999999999994
  endloop
endfacet
facet normal 0.40979769892204687 -0.15254004169100993 -0.8993316305118487
  outer loop
    vertex -17.4303 -7.0793 -1.8007999999999997
    vertex -17.3476 -4.355459999999999 -2.22512
    vertex -17.239799999999995 -7.05613 -1.71793
  endloop
endfacet
facet normal 0.9514850262302723 -0.019688788814119382 -0.3070644825677679
  outer loop
    vertex -16.935999999999996 -4.25453 -1.7752299999999999
    vertex -16.7644 -6.9159999999999995 -1.0728499999999999
    vertex -16.8282 -6.95521 -1.2680299999999998
  endloop
endfacet
facet normal 0.9514850262302723 -0.019688788814119382 -0.3070644825677679
  outer loop
    vertex -16.7644 -6.9159999999999995 -1.0728499999999999
    vertex -16.935999999999996 -4.25453 -1.7752299999999999
    vertex -16.8722 -4.21533 -1.58005
  endloop
endfacet
facet normal -0.04878102595343987 -0.1823678008080408 -0.9820195500779852
  outer loop
    vertex -17.634499999999996 -7.09533 -1.84277
    vertex -17.845699999999997 -7.101569999999999 -1.8311199999999999
    vertex -17.9513 -4.39884 -2.32779
  endloop
endfacet
facet normal 0.21127247495919693 -0.17225956041537355 -0.962128154234205
  outer loop
    vertex -17.538099999999996 -4.37863 -2.3079999999999994
    vertex -17.634499999999996 -7.09533 -1.84277
    vertex -17.7423 -4.394659999999999 -2.3499699999999994
  endloop
endfacet
facet normal 0.21127247495919693 -0.17225956041537355 -0.962128154234205
  outer loop
    vertex -17.634499999999996 -7.09533 -1.84277
    vertex -17.538099999999996 -4.37863 -2.3079999999999994
    vertex -17.4303 -7.0793 -1.8007999999999997
  endloop
endfacet
endsolid Untitled-598fcd68
