solid Untitled-599003b6
facet normal 0.9997433571131418 0.01815250962143958 -0.013553829812602239
  outer loop
    vertex 44.00589999999999 -6.08714 -9.50871
    vertex 44.13589999999999 -12.212999999999997 -8.12409
    vertex 44.1767 -14.172699999999999 -7.73925
  endloop
endfacet
facet normal 0.9997558408759815 0.018453124059339743 -0.01215486926338565
  outer loop
    vertex 44.1767 -14.172699999999999 -7.73925
    vertex 44.3211 -18.912499999999998 -3.05729
    vertex 44.2875 -19.641499999999997 -6.93161
  endloop
endfacet
facet normal 0.9997558408759815 0.018453124059339743 -0.01215486926338565
  outer loop
    vertex 44.3211 -18.912499999999998 -3.05729
    vertex 44.1767 -14.172699999999999 -7.73925
    vertex 44.2014 -13.638499999999999 -4.90001
  endloop
endfacet
facet normal 0.9997558408759815 0.018453124059339743 -0.01215486926338565
  outer loop
    vertex 44.3211 -18.912499999999998 -3.05729
    vertex 44.2014 -13.638499999999999 -4.90001
    vertex 44.20239999999999 -13.6171 -4.786499999999999
  endloop
endfacet
facet normal -0.9997666867372071 -0.018814928236727778 0.010609927707293496
  outer loop
    vertex 57.80279999999999 -5.827079999999999 -9.64813
    vertex 57.8026 -5.8324 -9.67641
    vertex 57.91729999999999 -11.2158 -8.41486
  endloop
endfacet
facet normal 0.9997693334056531 0.01869412957622803 -0.01057400118231097
  outer loop
    vertex 44.1767 -14.172699999999999 -7.73925
    vertex 44.2875 -19.641499999999997 -6.93161
    vertex 44.2873 -19.6468 -6.959889999999999
  endloop
endfacet
facet normal -0.999755801706098 -0.018457609026004393 0.01215128075721625
  outer loop
    vertex 57.998999999999995 -13.3615 -4.94978
    vertex 57.97319999999999 -13.920899999999998 -7.92286
    vertex 58.117799999999995 -18.657699999999995 -3.22479
  endloop
endfacet
facet normal -0.999755801706098 -0.018457609026004393 0.01215128075721625
  outer loop
    vertex 58.08390372250084 -19.392083282726002 -7.127593177834597
    vertex 57.97319999999999 -13.920899999999998 -7.92286
    vertex 57.8026 -5.8324 -9.67641
  endloop
endfacet
facet normal -0.999755801706098 -0.018457609026004393 0.01215128075721625
  outer loop
    vertex 57.97319999999999 -13.920899999999998 -7.92286
    vertex 58.08390372250084 -19.392083282726002 -7.127593177834597
    vertex 58.117799999999995 -18.657699999999995 -3.22479
  endloop
endfacet
facet normal -0.999755801706098 -0.018457609026004393 0.01215128075721625
  outer loop
    vertex 57.8026 -5.8324 -9.67641
    vertex 57.97319999999999 -13.920899999999998 -7.92286
    vertex 57.93249999999999 -11.958299999999998 -8.29179
  endloop
endfacet
facet normal -0.999755801706098 -0.018457609026004393 0.01215128075721625
  outer loop
    vertex 57.8026 -5.8324 -9.67641
    vertex 57.93249999999999 -11.958299999999998 -8.29179
    vertex 57.91729999999999 -11.2158 -8.41486
  endloop
endfacet
facet normal -0.9997636526585716 -0.01896284716162332 0.010632462100388672
  outer loop
    vertex 57.998999999999995 -13.3615 -4.94978
    vertex 58.117799999999995 -18.657699999999995 -3.22479
    vertex 58.118 -18.652499999999996 -3.1967099999999995
  endloop
endfacet
facet normal 0.9997432606185729 0.017854059393591692 -0.01395153794084221
  outer loop
    vertex 44.20239999999999 -13.6171 -4.786499999999999
    vertex 44.3214 -18.907199999999996 -3.0290099999999995
    vertex 44.3211 -18.912499999999998 -3.05729
  endloop
endfacet
facet normal 0.008252973410624635 0.18489160057530055 0.9827242667536948
  outer loop
    vertex 42.32188501921413 -18.944279774082528 -3.0052417024827114
    vertex 44.1175558599531 -9.081353722854244 -4.875951391725629
    vertex 42.11804087916724 -9.118433496936776 -4.85218309420834
  endloop
endfacet
facet normal 0.008252973410624635 0.18489160057530055 0.9827242667536948
  outer loop
    vertex 44.1175558599531 -9.081353722854244 -4.875951391725629
    vertex 42.32188501921413 -18.944279774082528 -3.0052417024827114
    vertex 44.3214 -18.907199999999996 -3.0290099999999995
  endloop
endfacet
facet normal 0.008252894588825535 0.1848953939544373 0.9827235537145426
  outer loop
    vertex 42.11804087916724 -9.118433496936776 -4.85218309420834
    vertex 44.03967868241772 -5.347539321579055 -5.5777992002292605
    vertex 42.04016370163186 -5.384619095661586 -5.554030902711972
  endloop
endfacet
facet normal 0.008252894588825535 0.1848953939544373 0.9827235537145426
  outer loop
    vertex 44.03967868241772 -5.347539321579055 -5.5777992002292605
    vertex 42.11804087916724 -9.118433496936776 -4.85218309420834
    vertex 44.1175558599531 -9.081353722854244 -4.875951391725629
  endloop
endfacet
facet normal 0.9997567713271388 0.018487160944468107 -0.012025933051057787
  outer loop
    vertex 44.00589999999999 -6.08714 -9.50871
    vertex 44.1767 -14.172699999999999 -7.73925
    vertex 44.2873 -19.6468 -6.959889999999999
  endloop
endfacet
facet normal 0.008535448406781953 0.18489987668102514 0.9827202967904127
  outer loop
    vertex 42.04016370163186 -5.384619095661586 -5.554030902711972
    vertex 55.9959730892645 -3.1608698861528124 -6.093070172704564
    vertex 41.99938941986941 -3.419451088939254 -5.923425222242922
  endloop
endfacet
facet normal 0.008535448406781953 0.18489987668102514 0.9827202967904127
  outer loop
    vertex 55.9959730892645 -3.1608698861528124 -6.093070172704564
    vertex 42.04016370163186 -5.384619095661586 -5.554030902711972
    vertex 44.03967868241772 -5.347539321579055 -5.5777992002292605
  endloop
endfacet
facet normal 0.008535448406781953 0.18489987668102514 0.9827202967904127
  outer loop
    vertex 55.9959730892645 -3.1608698861528124 -6.093070172704564
    vertex 44.03967868241772 -5.347539321579055 -5.5777992002292605
    vertex 56.03674737102695 -5.126037892875145 -5.7236758531736145
  endloop
endfacet
facet normal 0.008534879067313353 0.18490055499228247 0.9827201741100324
  outer loop
    vertex 56.03674737102695 -5.126037892875145 -5.7236758531736145
    vertex 59.79543301907664 -3.090721300803405 -6.139269034306559
    vertex 55.9959730892645 -3.1608698861528124 -6.093070172704564
  endloop
endfacet
facet normal 0.008534879067313353 0.18490055499228247 0.9827201741100324
  outer loop
    vertex 59.79543301907664 -3.090721300803405 -6.139269034306559
    vertex 56.03674737102695 -5.126037892875145 -5.7236758531736145
    vertex 57.83669584990195 -5.092806075644632 -5.7455619649739065
  endloop
endfacet
facet normal 0.008534879067313353 0.18490055499228247 0.9827201741100324
  outer loop
    vertex 59.79543301907664 -3.090721300803405 -6.139269034306559
    vertex 57.83669584990195 -5.092806075644632 -5.7455619649739065
    vertex 59.836207456598764 -5.05589434113762 -5.769869546927014
  endloop
endfacet
facet normal -0.00853111479288562 -0.18489932353467897 -0.9827204384955107
  outer loop
    vertex 59.76133702348204 -3.830320002723174 -10.070113699428822
    vertex 42.0063886475755 -6.124066490484164 -9.4844039138057
    vertex 41.96561409842606 -4.158898329675057 -9.85379738408341
  endloop
endfacet
facet normal -0.00853111479288562 -0.18489932353467897 -0.9827204384955107
  outer loop
    vertex 42.0063886475755 -6.124066490484164 -9.4844039138057
    vertex 59.76133702348204 -3.830320002723174 -10.070113699428822
    vertex 44.00589999999999 -6.08714 -9.50871
  endloop
endfacet
facet normal -0.00853111479288562 -0.18489932353467897 -0.9827204384955107
  outer loop
    vertex 44.00589999999999 -6.08714 -9.50871
    vertex 59.76133702348204 -3.830320002723174 -10.070113699428822
    vertex 57.8026 -5.8324 -9.67641
  endloop
endfacet
facet normal -0.00853111479288562 -0.18489932353467897 -0.9827204384955107
  outer loop
    vertex 57.8026 -5.8324 -9.67641
    vertex 59.76133702348204 -3.830320002723174 -10.070113699428822
    vertex 59.80211157263148 -5.795488163532282 -9.700720229151111
  endloop
endfacet
facet normal 0.02038723911240926 -0.9825838962998928 0.18469771848481226
  outer loop
    vertex 57.80279999999999 -5.827079999999999 -9.64813
    vertex 44.00589999999999 -6.08714 -9.50871
    vertex 57.8026 -5.8324 -9.67641
  endloop
endfacet
facet normal 0.02038723911240926 -0.9825838962998928 0.18469771848481226
  outer loop
    vertex 44.00589999999999 -6.08714 -9.50871
    vertex 57.80279999999999 -5.827079999999999 -9.64813
    vertex 57.83669584990195 -5.092806075644632 -5.7455619649739065
  endloop
endfacet
facet normal 0.02038723911240926 -0.9825838962998928 0.18469771848481226
  outer loop
    vertex 44.00589999999999 -6.08714 -9.50871
    vertex 57.83669584990195 -5.092806075644632 -5.7455619649739065
    vertex 56.03674737102695 -5.126037892875145 -5.7236758531736145
  endloop
endfacet
facet normal 0.02038723911240926 -0.9825838962998928 0.18469771848481226
  outer loop
    vertex 44.00589999999999 -6.08714 -9.50871
    vertex 56.03674737102695 -5.126037892875145 -5.7236758531736145
    vertex 44.03967868241772 -5.347539321579055 -5.5777992002292605
  endloop
endfacet
facet normal 0.008533437666948878 0.18489678538920654 0.9827208958775233
  outer loop
    vertex 58.15876882800938 -20.61766925542915 -2.8273217216548736
    vertex 60.117511606696816 -18.61558826549299 -3.221017581953107
    vertex 58.118 -18.652499999999996 -3.1967099999999995
  endloop
endfacet
facet normal 0.008533437666948878 0.18489678538920654 0.9827208958775233
  outer loop
    vertex 60.117511606696816 -18.61558826549299 -3.221017581953107
    vertex 58.15876882800938 -20.61766925542915 -2.8273217216548736
    vertex 60.15828043470619 -20.58075752092214 -2.851629303607982
  endloop
endfacet
facet normal -0.008531277433427005 -0.18489976832832883 -0.9827203533953514
  outer loop
    vertex 44.00589999999999 -6.08714 -9.50871
    vertex 42.32856056356564 -21.64889084495233 -6.566169903792272
    vertex 42.0063886475755 -6.124066490484164 -9.4844039138057
  endloop
endfacet
facet normal -0.008531277433427005 -0.18489976832832883 -0.9827203533953514
  outer loop
    vertex 42.32856056356564 -21.64889084495233 -6.566169903792272
    vertex 44.00589999999999 -6.08714 -9.50871
    vertex 44.32807191599014 -21.611964354468164 -6.5904759899865715
  endloop
endfacet
facet normal -0.008531277433427005 -0.18489976832832883 -0.9827203533953514
  outer loop
    vertex 44.32807191599014 -21.611964354468164 -6.5904759899865715
    vertex 44.00589999999999 -6.08714 -9.50871
    vertex 44.2873 -19.6468 -6.959889999999999
  endloop
endfacet
facet normal -0.9997557860682601 -0.01845517894189959 0.012156257370503572
  outer loop
    vertex 57.83669584990195 -5.092806075644632 -5.7455619649739065
    vertex 57.998999999999995 -13.3615 -4.94978
    vertex 58.118 -18.652499999999996 -3.1967099999999995
  endloop
endfacet
facet normal -0.9997557860682601 -0.01845517894189959 0.012156257370503572
  outer loop
    vertex 57.998999999999995 -13.3615 -4.94978
    vertex 57.83669584990195 -5.092806075644632 -5.7455619649739065
    vertex 57.943 -10.6594 -5.4577
  endloop
endfacet
facet normal -0.9997557860682601 -0.01845517894189959 0.012156257370503572
  outer loop
    vertex 57.943 -10.6594 -5.4577
    vertex 57.83669584990195 -5.092806075644632 -5.7455619649739065
    vertex 57.80279999999999 -5.827079999999999 -9.64813
  endloop
endfacet
facet normal -0.9997557860682601 -0.01845517894189959 0.012156257370503572
  outer loop
    vertex 57.917699999999996 -11.206299999999999 -8.364149999999999
    vertex 57.80279999999999 -5.827079999999999 -9.64813
    vertex 57.91729999999999 -11.2158 -8.41486
  endloop
endfacet
facet normal -0.9997557860682601 -0.01845517894189959 0.012156257370503572
  outer loop
    vertex 57.80279999999999 -5.827079999999999 -9.64813
    vertex 57.917699999999996 -11.206299999999999 -8.364149999999999
    vertex 57.943 -10.6594 -5.4577
  endloop
endfacet
facet normal 0.008533339054404544 0.1849015388356438 0.9827200023713742
  outer loop
    vertex 58.118 -18.652499999999996 -3.1967099999999995
    vertex 59.836207456598764 -5.05589434113762 -5.769869546927014
    vertex 57.83669584990195 -5.092806075644632 -5.7455619649739065
  endloop
endfacet
facet normal 0.008533339054404544 0.1849015388356438 0.9827200023713742
  outer loop
    vertex 59.836207456598764 -5.05589434113762 -5.769869546927014
    vertex 58.118 -18.652499999999996 -3.1967099999999995
    vertex 60.117511606696816 -18.61558826549299 -3.221017581953107
  endloop
endfacet
facet normal -0.008531479306461434 -0.1849096356252397 -0.9827184950502279
  outer loop
    vertex 58.08390372250084 -19.392083282726002 -7.127593177834597
    vertex 44.32807191599014 -21.611964354468164 -6.5904759899865715
    vertex 44.2873 -19.6468 -6.959889999999999
  endloop
endfacet
facet normal -0.008531479306461434 -0.1849096356252397 -0.9827184950502279
  outer loop
    vertex 44.32807191599014 -21.611964354468164 -6.5904759899865715
    vertex 58.08390372250084 -19.392083282726002 -7.127593177834597
    vertex 60.124187211122454 -21.320335800726447 -6.782489396972281
  endloop
endfacet
facet normal -0.008531479306461434 -0.1849096356252397 -0.9827184950502279
  outer loop
    vertex 60.124187211122454 -21.320335800726447 -6.782489396972281
    vertex 58.08390372250084 -19.392083282726002 -7.127593177834597
    vertex 60.083415295132326 -19.355171446258282 -7.151903406985708
  endloop
endfacet
facet normal -0.9997558201125646 -0.018479437164236914 0.012116540477649125
  outer loop
    vertex 42.362653847223505 -20.90944902951168 -2.635853424137585
    vertex 42.0063886475755 -6.124066490484164 -9.4844039138057
    vertex 42.32856056356564 -21.64889084495233 -6.566169903792272
  endloop
endfacet
facet normal -0.9997558201125646 -0.018479437164236914 0.012116540477649125
  outer loop
    vertex 42.0063886475755 -6.124066490484164 -9.4844039138057
    vertex 42.362653847223505 -20.90944902951168 -2.635853424137585
    vertex 42.32188501921413 -18.944279774082528 -3.0052417024827114
  endloop
endfacet
facet normal -0.9997558201125646 -0.018479437164236914 0.012116540477649125
  outer loop
    vertex 42.0063886475755 -6.124066490484164 -9.4844039138057
    vertex 42.32188501921413 -18.944279774082528 -3.0052417024827114
    vertex 42.11804087916724 -9.118433496936776 -4.85218309420834
  endloop
endfacet
facet normal -0.9997558201125646 -0.018479437164236914 0.012116540477649125
  outer loop
    vertex 42.0063886475755 -6.124066490484164 -9.4844039138057
    vertex 42.11804087916724 -9.118433496936776 -4.85218309420834
    vertex 42.04016370163186 -5.384619095661586 -5.554030902711972
  endloop
endfacet
facet normal -0.9997558201125646 -0.018479437164236914 0.012116540477649125
  outer loop
    vertex 42.0063886475755 -6.124066490484164 -9.4844039138057
    vertex 42.04016370163186 -5.384619095661586 -5.554030902711972
    vertex 41.96561409842606 -4.158898329675057 -9.85379738408341
  endloop
endfacet
facet normal -0.9997558201125646 -0.018479437164236914 0.012116540477649125
  outer loop
    vertex 41.96561409842606 -4.158898329675057 -9.85379738408341
    vertex 42.04016370163186 -5.384619095661586 -5.554030902711972
    vertex 41.99938941986941 -3.419451088939254 -5.923425222242922
  endloop
endfacet
facet normal -0.008534678297782785 -0.18489924352420656 -0.9827204226078391
  outer loop
    vertex 59.80211157263148 -5.795488163532282 -9.700720229151111
    vertex 58.08390372250084 -19.392083282726002 -7.127593177834597
    vertex 57.8026 -5.8324 -9.67641
  endloop
endfacet
facet normal -0.008534678297782785 -0.18489924352420656 -0.9827204226078391
  outer loop
    vertex 58.08390372250084 -19.392083282726002 -7.127593177834597
    vertex 59.80211157263148 -5.795488163532282 -9.700720229151111
    vertex 60.083415295132326 -19.355171446258282 -7.151903406985708
  endloop
endfacet
facet normal 0.9997556021576234 0.018484497225489765 -0.012126801588584625
  outer loop
    vertex 44.00589999999999 -6.08714 -9.50871
    vertex 44.1207 -11.469399999999998 -8.24126
    vertex 44.13589999999999 -12.212999999999997 -8.12409
  endloop
endfacet
facet normal 0.9997556021576234 0.018484497225489765 -0.012126801588584625
  outer loop
    vertex 44.1207 -11.469399999999998 -8.24126
    vertex 44.00589999999999 -6.08714 -9.50871
    vertex 44.146 -10.921999999999999 -5.33177
  endloop
endfacet
facet normal 0.9997556021576234 0.018484497225489765 -0.012126801588584625
  outer loop
    vertex 44.146 -10.921999999999999 -5.33177
    vertex 44.00589999999999 -6.08714 -9.50871
    vertex 44.14629999999999 -10.914199999999997 -5.29
  endloop
endfacet
facet normal 0.9997556021576234 0.018484497225489765 -0.012126801588584625
  outer loop
    vertex 44.14629999999999 -10.914199999999997 -5.29
    vertex 44.00589999999999 -6.08714 -9.50871
    vertex 44.1175558599531 -9.081353722854244 -4.875951391725629
  endloop
endfacet
facet normal 0.9997556021576234 0.018484497225489765 -0.012126801588584625
  outer loop
    vertex 44.1175558599531 -9.081353722854244 -4.875951391725629
    vertex 44.00589999999999 -6.08714 -9.50871
    vertex 44.03967868241772 -5.347539321579055 -5.5777992002292605
  endloop
endfacet
facet normal 0.9997556021576234 0.018484497225489765 -0.012126801588584625
  outer loop
    vertex 44.20239999999999 -13.6171 -4.786499999999999
    vertex 44.1175558599531 -9.081353722854244 -4.875951391725629
    vertex 44.3214 -18.907199999999996 -3.0290099999999995
  endloop
endfacet
facet normal 0.9997556021576234 0.018484497225489765 -0.012126801588584625
  outer loop
    vertex 44.1175558599531 -9.081353722854244 -4.875951391725629
    vertex 44.20239999999999 -13.6171 -4.786499999999999
    vertex 44.16069999999999 -11.604799999999997 -5.16018
  endloop
endfacet
facet normal 0.9997556021576234 0.018484497225489765 -0.012126801588584625
  outer loop
    vertex 44.1175558599531 -9.081353722854244 -4.875951391725629
    vertex 44.16069999999999 -11.604799999999997 -5.16018
    vertex 44.14629999999999 -10.914199999999997 -5.29
  endloop
endfacet
facet normal 0.9997558770213016 0.018457989968655573 -0.012144503599771603
  outer loop
    vertex 60.083415295132326 -19.355171446258282 -7.151903406985708
    vertex 60.15828043470619 -20.58075752092214 -2.851629303607982
    vertex 60.124187211122454 -21.320335800726447 -6.782489396972281
  endloop
endfacet
facet normal 0.9997558770213016 0.018457989968655573 -0.012144503599771603
  outer loop
    vertex 60.15828043470619 -20.58075752092214 -2.851629303607982
    vertex 60.083415295132326 -19.355171446258282 -7.151903406985708
    vertex 60.117511606696816 -18.61558826549299 -3.221017581953107
  endloop
endfacet
facet normal 0.9997558770213016 0.018457989968655573 -0.012144503599771603
  outer loop
    vertex 60.117511606696816 -18.61558826549299 -3.221017581953107
    vertex 60.083415295132326 -19.355171446258282 -7.151903406985708
    vertex 59.80211157263148 -5.795488163532282 -9.700720229151111
  endloop
endfacet
facet normal 0.9997558770213016 0.018457989968655573 -0.012144503599771603
  outer loop
    vertex 60.117511606696816 -18.61558826549299 -3.221017581953107
    vertex 59.80211157263148 -5.795488163532282 -9.700720229151111
    vertex 59.836207456598764 -5.05589434113762 -5.769869546927014
  endloop
endfacet
facet normal 0.9997558770213016 0.018457989968655573 -0.012144503599771603
  outer loop
    vertex 59.836207456598764 -5.05589434113762 -5.769869546927014
    vertex 59.80211157263148 -5.795488163532282 -9.700720229151111
    vertex 59.76133702348204 -3.830320002723174 -10.070113699428822
  endloop
endfacet
facet normal 0.9997558770213016 0.018457989968655573 -0.012144503599771603
  outer loop
    vertex 59.836207456598764 -5.05589434113762 -5.769869546927014
    vertex 59.76133702348204 -3.830320002723174 -10.070113699428822
    vertex 59.79543301907664 -3.090721300803405 -6.139269034306559
  endloop
endfacet
facet normal 0.020386322921333067 -0.9825846551669161 0.18469378242989062
  outer loop
    vertex 60.15828043470619 -20.58075752092214 -2.851629303607982
    vertex 44.32807191599014 -21.611964354468164 -6.5904759899865715
    vertex 60.124187211122454 -21.320335800726447 -6.782489396972281
  endloop
endfacet
facet normal 0.020386322921333067 -0.9825846551669161 0.18469378242989062
  outer loop
    vertex 44.32807191599014 -21.611964354468164 -6.5904759899865715
    vertex 60.15828043470619 -20.58075752092214 -2.851629303607982
    vertex 42.32856056356564 -21.64889084495233 -6.566169903792272
  endloop
endfacet
facet normal 0.020386322921333067 -0.9825846551669161 0.18469378242989062
  outer loop
    vertex 42.32856056356564 -21.64889084495233 -6.566169903792272
    vertex 60.15828043470619 -20.58075752092214 -2.851629303607982
    vertex 42.362653847223505 -20.90944902951168 -2.635853424137585
  endloop
endfacet
facet normal 0.020386322921333067 -0.9825846551669161 0.18469378242989062
  outer loop
    vertex 42.362653847223505 -20.90944902951168 -2.635853424137585
    vertex 60.15828043470619 -20.58075752092214 -2.851629303607982
    vertex 58.15876882800938 -20.61766925542915 -2.8273217216548736
  endloop
endfacet
facet normal 0.020386322921333067 -0.9825846551669161 0.18469378242989062
  outer loop
    vertex 42.362653847223505 -20.90944902951168 -2.635853424137585
    vertex 58.15876882800938 -20.61766925542915 -2.8273217216548736
    vertex 49.16096642844591 -20.783773541698217 -2.7179537899155255
  endloop
endfacet
facet normal 0.020386322921333067 -0.9825846551669161 0.18469378242989062
  outer loop
    vertex 42.362653847223505 -20.90944902951168 -2.635853424137585
    vertex 49.16096642844591 -20.783773541698217 -2.7179537899155255
    vertex 45.16194313975104 -20.857597668928914 -2.669345820253593
  endloop
endfacet
facet normal -0.02038914661151715 0.982584610251747 -0.18469370968410528
  outer loop
    vertex 41.96561409842606 -4.158898329675057 -9.85379738408341
    vertex 59.79543301907664 -3.090721300803405 -6.139269034306559
    vertex 59.76133702348204 -3.830320002723174 -10.070113699428822
  endloop
endfacet
facet normal -0.02038914661151715 0.982584610251747 -0.18469370968410528
  outer loop
    vertex 59.79543301907664 -3.090721300803405 -6.139269034306559
    vertex 41.96561409842606 -4.158898329675057 -9.85379738408341
    vertex 41.99938941986941 -3.419451088939254 -5.923425222242922
  endloop
endfacet
facet normal -0.02038914661151715 0.982584610251747 -0.18469370968410528
  outer loop
    vertex 59.79543301907664 -3.090721300803405 -6.139269034306559
    vertex 41.99938941986941 -3.419451088939254 -5.923425222242922
    vertex 55.9959730892645 -3.1608698861528124 -6.093070172704564
  endloop
endfacet
facet normal 0.008531640036298764 0.1848967522035283 0.9827209177293817
  outer loop
    vertex 49.16096642844591 -20.783773541698217 -2.7179537899155255
    vertex 58.118 -18.652499999999996 -3.1967099999999995
    vertex 49.12019760043653 -18.818604286269068 -3.0873420682606514
  endloop
endfacet
facet normal 0.008531640036298764 0.1848967522035283 0.9827209177293817
  outer loop
    vertex 58.118 -18.652499999999996 -3.1967099999999995
    vertex 49.16096642844591 -20.783773541698217 -2.7179537899155255
    vertex 58.15876882800938 -20.61766925542915 -2.8273217216548736
  endloop
endfacet
facet normal 0.008531640036298768 0.18489675220352833 0.9827209177293816
  outer loop
    vertex 45.16194313975104 -20.857597668928914 -2.669345820253593
    vertex 49.12019760043653 -18.818604286269068 -3.0873420682606514
    vertex 45.12117431174166 -18.89242841349976 -3.038734098598719
  endloop
endfacet
facet normal 0.008531640036298768 0.18489675220352833 0.9827209177293816
  outer loop
    vertex 49.12019760043653 -18.818604286269068 -3.0873420682606514
    vertex 45.16194313975104 -20.857597668928914 -2.669345820253593
    vertex 49.16096642844591 -20.783773541698217 -2.7179537899155255
  endloop
endfacet
facet normal 0.008533477397079025 0.18489678612264926 0.982720895394531
  outer loop
    vertex 42.362653847223505 -20.90944902951168 -2.635853424137585
    vertex 44.3214 -18.907199999999996 -3.0290099999999995
    vertex 42.32188501921413 -18.944279774082528 -3.0052417024827114
  endloop
endfacet
facet normal 0.008533477397079025 0.18489678612264926 0.982720895394531
  outer loop
    vertex 44.3214 -18.907199999999996 -3.0290099999999995
    vertex 42.362653847223505 -20.90944902951168 -2.635853424137585
    vertex 45.16194313975104 -20.857597668928914 -2.669345820253593
  endloop
endfacet
facet normal 0.008533477397079025 0.18489678612264926 0.982720895394531
  outer loop
    vertex 44.3214 -18.907199999999996 -3.0290099999999995
    vertex 45.16194313975104 -20.857597668928914 -2.669345820253593
    vertex 45.12117431174166 -18.89242841349976 -3.038734098598719
  endloop
endfacet
facet normal -0.9100631463405331 -0.07228314386304252 -0.40811789569442325
  outer loop
    vertex 57.657 -11.1113 -7.8299
    vertex 57.91729999999999 -11.2158 -8.41486
    vertex 57.93249999999999 -11.958299999999998 -8.29179
  endloop
endfacet
facet normal -0.9100631463405331 -0.07228314386304252 -0.40811789569442325
  outer loop
    vertex 57.91729999999999 -11.2158 -8.41486
    vertex 57.657 -11.1113 -7.8299
    vertex 57.917699999999996 -11.206299999999999 -8.364149999999999
  endloop
endfacet
facet normal 0.9933178937582282 -0.0011068264804678415 -0.11540509899852566
  outer loop
    vertex 44.41759999999999 -11.341 -7.59081
    vertex 44.48309999999999 -14.027599999999998 -7.00127
    vertex 44.47359999999999 -14.0431 -7.08289
  endloop
endfacet
facet normal 0.020388866951072726 -0.9825821314282325 0.18470692759721652
  outer loop
    vertex 57.998999999999995 -13.3615 -4.94978
    vertex 57.712999999999994 -13.813399999999998 -7.321979999999999
    vertex 57.97319999999999 -13.920899999999998 -7.92286
  endloop
endfacet
facet normal 0.020388866951072726 -0.9825821314282325 0.18470692759721652
  outer loop
    vertex 57.712999999999994 -13.813399999999998 -7.321979999999999
    vertex 57.998999999999995 -13.3615 -4.94978
    vertex 57.68789999999999 -13.7991 -7.24351
  endloop
endfacet
facet normal 0.020388866951072726 -0.9825821314282325 0.18470692759721652
  outer loop
    vertex 57.68789999999999 -13.7991 -7.24351
    vertex 57.998999999999995 -13.3615 -4.94978
    vertex 57.6799 -13.7839 -7.161679999999999
  endloop
endfacet
facet normal 0.020388866951072726 -0.9825821314282325 0.18470692759721652
  outer loop
    vertex 57.6799 -13.7839 -7.161679999999999
    vertex 57.998999999999995 -13.3615 -4.94978
    vertex 57.689299999999996 -13.768399999999998 -7.080059999999999
  endloop
endfacet
facet normal -0.020421987651511323 0.9825815318185649 -0.18470645833171123
  outer loop
    vertex 57.657 -11.1113 -7.8299
    vertex 57.943 -10.6594 -5.4577
    vertex 57.917699999999996 -11.206299999999999 -8.364149999999999
  endloop
endfacet
facet normal -0.020421987651511323 0.9825815318185649 -0.18470645833171123
  outer loop
    vertex 57.943 -10.6594 -5.4577
    vertex 57.657 -11.1113 -7.8299
    vertex 57.63179999999999 -11.097 -7.75143
  endloop
endfacet
facet normal -0.020421987651511323 0.9825815318185649 -0.18470645833171123
  outer loop
    vertex 57.943 -10.6594 -5.4577
    vertex 57.63179999999999 -11.097 -7.75143
    vertex 57.6238 -11.0818 -7.66959
  endloop
endfacet
facet normal -0.020421987651511323 0.9825815318185649 -0.18470645833171123
  outer loop
    vertex 57.943 -10.6594 -5.4577
    vertex 57.6238 -11.0818 -7.66959
    vertex 57.6332 -11.066299999999998 -7.58797
  endloop
endfacet
facet normal -0.9952033831949004 -0.03763547278459489 -0.09029837908680384
  outer loop
    vertex 57.6799 -13.7839 -7.161679999999999
    vertex 57.63179999999999 -11.097 -7.75143
    vertex 57.68789999999999 -13.7991 -7.24351
  endloop
endfacet
facet normal -0.9952033831949004 -0.03763547278459489 -0.09029837908680384
  outer loop
    vertex 57.63179999999999 -11.097 -7.75143
    vertex 57.6799 -13.7839 -7.161679999999999
    vertex 57.6238 -11.0818 -7.66959
  endloop
endfacet
facet normal -0.9533297778982885 -0.0747454706059346 -0.2925328172979864
  outer loop
    vertex 57.63179999999999 -11.097 -7.75143
    vertex 57.657 -11.1113 -7.8299
    vertex 57.712999999999994 -13.813399999999998 -7.321979999999999
  endloop
endfacet
facet normal -0.9536719065648648 -0.07458553724751828 -0.29145650149282143
  outer loop
    vertex 57.63179999999999 -11.097 -7.75143
    vertex 57.712999999999994 -13.813399999999998 -7.321979999999999
    vertex 57.68789999999999 -13.7991 -7.24351
  endloop
endfacet
facet normal -0.9934514122945988 0.0008501603573733131 0.1142522150211282
  outer loop
    vertex 57.689299999999996 -13.768399999999998 -7.080059999999999
    vertex 57.6238 -11.0818 -7.66959
    vertex 57.6799 -13.7839 -7.161679999999999
  endloop
endfacet
facet normal -0.9934514122945988 0.0008501603573733131 0.1142522150211282
  outer loop
    vertex 57.6238 -11.0818 -7.66959
    vertex 57.689299999999996 -13.768399999999998 -7.080059999999999
    vertex 57.6332 -11.066299999999998 -7.58797
  endloop
endfacet
facet normal -0.9897445104504634 0.006294921883232948 0.14271011874305498
  outer loop
    vertex 57.998999999999995 -13.3615 -4.94978
    vertex 57.6332 -11.066299999999998 -7.58797
    vertex 57.689299999999996 -13.768399999999998 -7.080059999999999
  endloop
endfacet
facet normal -0.9897445104504634 0.006294921883232948 0.14271011874305498
  outer loop
    vertex 57.6332 -11.066299999999998 -7.58797
    vertex 57.998999999999995 -13.3615 -4.94978
    vertex 57.943 -10.6594 -5.4577
  endloop
endfacet
facet normal -0.9196956172544017 -0.09086591834873617 -0.38197297873761393
  outer loop
    vertex 57.712999999999994 -13.813399999999998 -7.321979999999999
    vertex 57.93249999999999 -11.958299999999998 -8.29179
    vertex 57.97319999999999 -13.920899999999998 -7.92286
  endloop
endfacet
facet normal -0.9196956172544017 -0.09086591834873617 -0.38197297873761393
  outer loop
    vertex 57.93249999999999 -11.958299999999998 -8.29179
    vertex 57.712999999999994 -13.813399999999998 -7.321979999999999
    vertex 57.657 -11.1113 -7.8299
  endloop
endfacet
facet normal 0.9916370266682688 0.03954685992917232 0.12284971799014237
  outer loop
    vertex 44.16069999999999 -11.604799999999997 -5.16018
    vertex 44.2014 -13.638499999999999 -4.90001
    vertex 44.4751 -14.0124 -6.919439999999999
  endloop
endfacet
facet normal 0.9916370266682688 0.03954685992917232 0.12284971799014237
  outer loop
    vertex 44.2014 -13.638499999999999 -4.90001
    vertex 44.16069999999999 -11.604799999999997 -5.16018
    vertex 44.20239999999999 -13.6171 -4.786499999999999
  endloop
endfacet
facet normal 0.02045030800267077 -0.9825823309833541 0.18469907347335082
  outer loop
    vertex 44.4471 -14.058299999999997 -7.160729999999999
    vertex 44.2014 -13.638499999999999 -4.90001
    vertex 44.1767 -14.172699999999999 -7.73925
  endloop
endfacet
facet normal 0.02045030800267077 -0.9825823309833541 0.18469907347335082
  outer loop
    vertex 44.2014 -13.638499999999999 -4.90001
    vertex 44.4471 -14.058299999999997 -7.160729999999999
    vertex 44.47359999999999 -14.0431 -7.08289
  endloop
endfacet
facet normal 0.02045030800267077 -0.9825823309833541 0.18469907347335082
  outer loop
    vertex 44.2014 -13.638499999999999 -4.90001
    vertex 44.47359999999999 -14.0431 -7.08289
    vertex 44.48309999999999 -14.027599999999998 -7.00127
  endloop
endfacet
facet normal 0.02045030800267077 -0.9825823309833541 0.18469907347335082
  outer loop
    vertex 44.2014 -13.638499999999999 -4.90001
    vertex 44.48309999999999 -14.027599999999998 -7.00127
    vertex 44.4751 -14.0124 -6.919439999999999
  endloop
endfacet
facet normal 0.9920164347543411 0.042887450132004096 0.11859198876172576
  outer loop
    vertex 44.419 -11.310299999999998 -7.427349999999999
    vertex 44.16069999999999 -11.604799999999997 -5.16018
    vertex 44.4751 -14.0124 -6.919439999999999
  endloop
endfacet
facet normal -0.02020981378626935 0.98258900854188 -0.18469002062756248
  outer loop
    vertex 44.146 -10.921999999999999 -5.33177
    vertex 44.3911 -11.3562 -7.6686499999999995
    vertex 44.1207 -11.469399999999998 -8.24126
  endloop
endfacet
facet normal -0.02020981378626935 0.98258900854188 -0.18469002062756248
  outer loop
    vertex 44.3911 -11.3562 -7.6686499999999995
    vertex 44.146 -10.921999999999999 -5.33177
    vertex 44.41759999999999 -11.341 -7.59081
  endloop
endfacet
facet normal -0.02020981378626935 0.98258900854188 -0.18469002062756248
  outer loop
    vertex 44.41759999999999 -11.341 -7.59081
    vertex 44.146 -10.921999999999999 -5.33177
    vertex 44.42699999999999 -11.3255 -7.50919
  endloop
endfacet
facet normal -0.02020981378626935 0.98258900854188 -0.18469002062756248
  outer loop
    vertex 44.42699999999999 -11.3255 -7.50919
    vertex 44.146 -10.921999999999999 -5.33177
    vertex 44.419 -11.310299999999998 -7.427349999999999
  endloop
endfacet
facet normal 0.9917656364541074 0.047107968189880216 0.11908720200676778
  outer loop
    vertex 44.16069999999999 -11.604799999999997 -5.16018
    vertex 44.146 -10.921999999999999 -5.33177
    vertex 44.14629999999999 -10.914199999999997 -5.29
  endloop
endfacet
facet normal 0.9917656364541074 0.047107968189880216 0.11908720200676778
  outer loop
    vertex 44.146 -10.921999999999999 -5.33177
    vertex 44.16069999999999 -11.604799999999997 -5.16018
    vertex 44.419 -11.310299999999998 -7.427349999999999
  endloop
endfacet
facet normal 0.9952033831948877 0.03763547278462133 0.09029837908693461
  outer loop
    vertex 44.42699999999999 -11.3255 -7.50919
    vertex 44.4751 -14.0124 -6.919439999999999
    vertex 44.48309999999999 -14.027599999999998 -7.00127
  endloop
endfacet
facet normal 0.9952033831948877 0.03763547278462133 0.09029837908693461
  outer loop
    vertex 44.4751 -14.0124 -6.919439999999999
    vertex 44.42699999999999 -11.3255 -7.50919
    vertex 44.419 -11.310299999999998 -7.427349999999999
  endloop
endfacet
facet normal 0.993451420749581 -0.0008505686187523002 -0.11425213846429284
  outer loop
    vertex 44.42699999999999 -11.3255 -7.50919
    vertex 44.48309999999999 -14.027599999999998 -7.00127
    vertex 44.41759999999999 -11.341 -7.59081
  endloop
endfacet
facet normal 0.9068193648537743 -0.04746061631537679 -0.41883902567115466
  outer loop
    vertex 44.3911 -11.3562 -7.6686499999999995
    vertex 44.13589999999999 -12.212999999999997 -8.12409
    vertex 44.1207 -11.469399999999998 -8.24126
  endloop
endfacet
facet normal 0.908834214552472 -0.06208626641032168 -0.4125114131536458
  outer loop
    vertex 44.13589999999999 -12.212999999999997 -8.12409
    vertex 44.4471 -14.058299999999997 -7.160729999999999
    vertex 44.1767 -14.172699999999999 -7.73925
  endloop
endfacet
facet normal 0.9482359008612069 -0.03957656536803383 -0.31509105317607033
  outer loop
    vertex 44.3911 -11.3562 -7.6686499999999995
    vertex 44.47359999999999 -14.0431 -7.08289
    vertex 44.4471 -14.058299999999997 -7.160729999999999
  endloop
endfacet
facet normal 0.9482359008612069 -0.03957656536803383 -0.31509105317607033
  outer loop
    vertex 44.47359999999999 -14.0431 -7.08289
    vertex 44.3911 -11.3562 -7.6686499999999995
    vertex 44.41759999999999 -11.341 -7.59081
  endloop
endfacet
facet normal 0.912893948507894 -0.057057050828226034 -0.404189475034237
  outer loop
    vertex 44.3911 -11.3562 -7.6686499999999995
    vertex 44.4471 -14.058299999999997 -7.160729999999999
    vertex 44.13589999999999 -12.212999999999997 -8.12409
  endloop
endfacet
facet normal -0.021176857519477506 0.9830884942523286 -0.1819025925441664
  outer loop
    vertex 58.118 -18.652499999999996 -3.1967099999999995
    vertex 58.117799999999995 -18.657699999999995 -3.22479
    vertex 44.2875 -19.641499999999997 -6.93161
  endloop
endfacet
facet normal -0.020383907868007357 0.9825826317748766 -0.18470481324098173
  outer loop
    vertex 44.3211 -18.912499999999998 -3.05729
    vertex 58.118 -18.652499999999996 -3.1967099999999995
    vertex 44.2875 -19.641499999999997 -6.93161
  endloop
endfacet
facet normal -0.020383907868007357 0.9825826317748766 -0.18470481324098173
  outer loop
    vertex 58.118 -18.652499999999996 -3.1967099999999995
    vertex 44.3211 -18.912499999999998 -3.05729
    vertex 49.12019760043653 -18.818604286269068 -3.0873420682606514
  endloop
endfacet
facet normal -0.020383907868007357 0.9825826317748766 -0.18470481324098173
  outer loop
    vertex 49.12019760043653 -18.818604286269068 -3.0873420682606514
    vertex 44.3211 -18.912499999999998 -3.05729
    vertex 45.12117431174166 -18.89242841349976 -3.038734098598719
  endloop
endfacet
facet normal -0.020383907868007357 0.9825826317748766 -0.18470481324098173
  outer loop
    vertex 45.12117431174166 -18.89242841349976 -3.038734098598719
    vertex 44.3211 -18.912499999999998 -3.05729
    vertex 44.3214 -18.907199999999996 -3.0290099999999995
  endloop
endfacet
facet normal -0.020386679178888777 0.9825809690258849 -0.18471335257693258
  outer loop
    vertex 44.2873 -19.6468 -6.959889999999999
    vertex 58.117799999999995 -18.657699999999995 -3.22479
    vertex 58.08390372250084 -19.392083282726002 -7.127593177834597
  endloop
endfacet
facet normal -0.020386679178888777 0.9825809690258849 -0.18471335257693258
  outer loop
    vertex 58.117799999999995 -18.657699999999995 -3.22479
    vertex 44.2873 -19.6468 -6.959889999999999
    vertex 44.2875 -19.641499999999997 -6.93161
  endloop
endfacet
endsolid Untitled-599003b6
